<mxfile host="app.diagrams.net" modified="2023-12-29T10:14:04.014Z" agent="Mozilla/5.0 (Windows NT 10.0; Win64; x64) AppleWebKit/537.36 (KHTML, like Gecko) Chrome/119.0.0.0 Safari/537.36 OPR/105.0.0.0" etag="9azwkSZxlLEScibcmy0Q" version="22.1.15" type="device">
  <diagram name="Seite-1" id="7rTq0BENwWkNgF4Z-weg">
    <mxGraphModel dx="740" dy="415" grid="1" gridSize="10" guides="1" tooltips="1" connect="1" arrows="1" fold="1" page="1" pageScale="1" pageWidth="827" pageHeight="1169" math="0" shadow="0">
      <root>
        <mxCell id="0" />
        <mxCell id="1" parent="0" />
        <mxCell id="MCTIEd8ayWj7sPqM-dVJ-1" value="" style="group" parent="1" vertex="1" connectable="0">
          <mxGeometry x="160" y="90" width="170" height="170" as="geometry" />
        </mxCell>
        <mxCell id="MCTIEd8ayWj7sPqM-dVJ-2" value="" style="shape=cube;whiteSpace=wrap;html=1;boundedLbl=1;backgroundOutline=1;darkOpacity=0.05;darkOpacity2=0.1;size=10;rotation=90;" parent="MCTIEd8ayWj7sPqM-dVJ-1" vertex="1">
          <mxGeometry x="20" y="100" width="30" height="30" as="geometry" />
        </mxCell>
        <mxCell id="MCTIEd8ayWj7sPqM-dVJ-3" value="" style="shape=cube;whiteSpace=wrap;html=1;boundedLbl=1;backgroundOutline=1;darkOpacity=0.05;darkOpacity2=0.1;size=10;rotation=90;" parent="MCTIEd8ayWj7sPqM-dVJ-1" vertex="1">
          <mxGeometry x="20" y="80" width="30" height="30" as="geometry" />
        </mxCell>
        <mxCell id="MCTIEd8ayWj7sPqM-dVJ-4" value="" style="shape=cube;whiteSpace=wrap;html=1;boundedLbl=1;backgroundOutline=1;darkOpacity=0.05;darkOpacity2=0.1;size=10;rotation=90;" parent="MCTIEd8ayWj7sPqM-dVJ-1" vertex="1">
          <mxGeometry x="20" y="60" width="30" height="30" as="geometry" />
        </mxCell>
        <mxCell id="MCTIEd8ayWj7sPqM-dVJ-5" value="" style="shape=cube;whiteSpace=wrap;html=1;boundedLbl=1;backgroundOutline=1;darkOpacity=0.05;darkOpacity2=0.1;size=10;rotation=90;" parent="MCTIEd8ayWj7sPqM-dVJ-1" vertex="1">
          <mxGeometry x="20" y="40" width="30" height="30" as="geometry" />
        </mxCell>
        <mxCell id="MCTIEd8ayWj7sPqM-dVJ-6" value="" style="shape=cube;whiteSpace=wrap;html=1;boundedLbl=1;backgroundOutline=1;darkOpacity=0.05;darkOpacity2=0.1;size=10;rotation=90;" parent="MCTIEd8ayWj7sPqM-dVJ-1" vertex="1">
          <mxGeometry x="20" y="20" width="30" height="30" as="geometry" />
        </mxCell>
        <mxCell id="MCTIEd8ayWj7sPqM-dVJ-7" value="" style="shape=cube;whiteSpace=wrap;html=1;boundedLbl=1;backgroundOutline=1;darkOpacity=0.05;darkOpacity2=0.1;size=10;rotation=90;" parent="MCTIEd8ayWj7sPqM-dVJ-1" vertex="1">
          <mxGeometry x="20" width="30" height="30" as="geometry" />
        </mxCell>
        <mxCell id="MCTIEd8ayWj7sPqM-dVJ-8" value="" style="shape=cube;whiteSpace=wrap;html=1;boundedLbl=1;backgroundOutline=1;darkOpacity=0.05;darkOpacity2=0.1;size=10;rotation=90;" parent="MCTIEd8ayWj7sPqM-dVJ-1" vertex="1">
          <mxGeometry x="40" y="100" width="30" height="30" as="geometry" />
        </mxCell>
        <mxCell id="MCTIEd8ayWj7sPqM-dVJ-9" value="" style="shape=cube;whiteSpace=wrap;html=1;boundedLbl=1;backgroundOutline=1;darkOpacity=0.05;darkOpacity2=0.1;size=10;rotation=90;" parent="MCTIEd8ayWj7sPqM-dVJ-1" vertex="1">
          <mxGeometry x="40" y="80" width="30" height="30" as="geometry" />
        </mxCell>
        <mxCell id="MCTIEd8ayWj7sPqM-dVJ-10" value="" style="shape=cube;whiteSpace=wrap;html=1;boundedLbl=1;backgroundOutline=1;darkOpacity=0.05;darkOpacity2=0.1;size=10;rotation=90;" parent="MCTIEd8ayWj7sPqM-dVJ-1" vertex="1">
          <mxGeometry x="40" y="60" width="30" height="30" as="geometry" />
        </mxCell>
        <mxCell id="MCTIEd8ayWj7sPqM-dVJ-11" value="" style="shape=cube;whiteSpace=wrap;html=1;boundedLbl=1;backgroundOutline=1;darkOpacity=0.05;darkOpacity2=0.1;size=10;rotation=90;" parent="MCTIEd8ayWj7sPqM-dVJ-1" vertex="1">
          <mxGeometry x="40" y="40" width="30" height="30" as="geometry" />
        </mxCell>
        <mxCell id="MCTIEd8ayWj7sPqM-dVJ-12" value="" style="shape=cube;whiteSpace=wrap;html=1;boundedLbl=1;backgroundOutline=1;darkOpacity=0.05;darkOpacity2=0.1;size=10;rotation=90;" parent="MCTIEd8ayWj7sPqM-dVJ-1" vertex="1">
          <mxGeometry x="40" y="20" width="30" height="30" as="geometry" />
        </mxCell>
        <mxCell id="MCTIEd8ayWj7sPqM-dVJ-13" value="" style="shape=cube;whiteSpace=wrap;html=1;boundedLbl=1;backgroundOutline=1;darkOpacity=0.05;darkOpacity2=0.1;size=10;rotation=90;" parent="MCTIEd8ayWj7sPqM-dVJ-1" vertex="1">
          <mxGeometry x="40" width="30" height="30" as="geometry" />
        </mxCell>
        <mxCell id="MCTIEd8ayWj7sPqM-dVJ-14" value="" style="shape=cube;whiteSpace=wrap;html=1;boundedLbl=1;backgroundOutline=1;darkOpacity=0.05;darkOpacity2=0.1;size=10;rotation=90;" parent="MCTIEd8ayWj7sPqM-dVJ-1" vertex="1">
          <mxGeometry x="60" y="100" width="30" height="30" as="geometry" />
        </mxCell>
        <mxCell id="MCTIEd8ayWj7sPqM-dVJ-15" value="" style="shape=cube;whiteSpace=wrap;html=1;boundedLbl=1;backgroundOutline=1;darkOpacity=0.05;darkOpacity2=0.1;size=10;rotation=90;" parent="MCTIEd8ayWj7sPqM-dVJ-1" vertex="1">
          <mxGeometry x="60" y="80" width="30" height="30" as="geometry" />
        </mxCell>
        <mxCell id="MCTIEd8ayWj7sPqM-dVJ-16" value="" style="shape=cube;whiteSpace=wrap;html=1;boundedLbl=1;backgroundOutline=1;darkOpacity=0.05;darkOpacity2=0.1;size=10;rotation=90;" parent="MCTIEd8ayWj7sPqM-dVJ-1" vertex="1">
          <mxGeometry x="60" y="60" width="30" height="30" as="geometry" />
        </mxCell>
        <mxCell id="MCTIEd8ayWj7sPqM-dVJ-17" value="" style="shape=cube;whiteSpace=wrap;html=1;boundedLbl=1;backgroundOutline=1;darkOpacity=0.05;darkOpacity2=0.1;size=10;rotation=90;" parent="MCTIEd8ayWj7sPqM-dVJ-1" vertex="1">
          <mxGeometry x="60" y="40" width="30" height="30" as="geometry" />
        </mxCell>
        <mxCell id="MCTIEd8ayWj7sPqM-dVJ-18" value="" style="shape=cube;whiteSpace=wrap;html=1;boundedLbl=1;backgroundOutline=1;darkOpacity=0.05;darkOpacity2=0.1;size=10;rotation=90;" parent="MCTIEd8ayWj7sPqM-dVJ-1" vertex="1">
          <mxGeometry x="60" y="20" width="30" height="30" as="geometry" />
        </mxCell>
        <mxCell id="MCTIEd8ayWj7sPqM-dVJ-19" value="" style="shape=cube;whiteSpace=wrap;html=1;boundedLbl=1;backgroundOutline=1;darkOpacity=0.05;darkOpacity2=0.1;size=10;rotation=90;" parent="MCTIEd8ayWj7sPqM-dVJ-1" vertex="1">
          <mxGeometry x="60" width="30" height="30" as="geometry" />
        </mxCell>
        <mxCell id="MCTIEd8ayWj7sPqM-dVJ-20" value="" style="shape=cube;whiteSpace=wrap;html=1;boundedLbl=1;backgroundOutline=1;darkOpacity=0.05;darkOpacity2=0.1;size=10;rotation=90;" parent="MCTIEd8ayWj7sPqM-dVJ-1" vertex="1">
          <mxGeometry x="80" y="100" width="30" height="30" as="geometry" />
        </mxCell>
        <mxCell id="MCTIEd8ayWj7sPqM-dVJ-21" value="" style="shape=cube;whiteSpace=wrap;html=1;boundedLbl=1;backgroundOutline=1;darkOpacity=0.05;darkOpacity2=0.1;size=10;rotation=90;" parent="MCTIEd8ayWj7sPqM-dVJ-1" vertex="1">
          <mxGeometry x="80" y="80" width="30" height="30" as="geometry" />
        </mxCell>
        <mxCell id="MCTIEd8ayWj7sPqM-dVJ-22" value="" style="shape=cube;whiteSpace=wrap;html=1;boundedLbl=1;backgroundOutline=1;darkOpacity=0.05;darkOpacity2=0.1;size=10;rotation=90;" parent="MCTIEd8ayWj7sPqM-dVJ-1" vertex="1">
          <mxGeometry x="80" y="60" width="30" height="30" as="geometry" />
        </mxCell>
        <mxCell id="MCTIEd8ayWj7sPqM-dVJ-23" value="" style="shape=cube;whiteSpace=wrap;html=1;boundedLbl=1;backgroundOutline=1;darkOpacity=0.05;darkOpacity2=0.1;size=10;rotation=90;" parent="MCTIEd8ayWj7sPqM-dVJ-1" vertex="1">
          <mxGeometry x="80" y="40" width="30" height="30" as="geometry" />
        </mxCell>
        <mxCell id="MCTIEd8ayWj7sPqM-dVJ-24" value="" style="shape=cube;whiteSpace=wrap;html=1;boundedLbl=1;backgroundOutline=1;darkOpacity=0.05;darkOpacity2=0.1;size=10;rotation=90;" parent="MCTIEd8ayWj7sPqM-dVJ-1" vertex="1">
          <mxGeometry x="80" y="20" width="30" height="30" as="geometry" />
        </mxCell>
        <mxCell id="MCTIEd8ayWj7sPqM-dVJ-25" value="" style="shape=cube;whiteSpace=wrap;html=1;boundedLbl=1;backgroundOutline=1;darkOpacity=0.05;darkOpacity2=0.1;size=10;rotation=90;" parent="MCTIEd8ayWj7sPqM-dVJ-1" vertex="1">
          <mxGeometry x="80" width="30" height="30" as="geometry" />
        </mxCell>
        <mxCell id="MCTIEd8ayWj7sPqM-dVJ-26" value="" style="shape=cube;whiteSpace=wrap;html=1;boundedLbl=1;backgroundOutline=1;darkOpacity=0.05;darkOpacity2=0.1;size=10;rotation=90;" parent="MCTIEd8ayWj7sPqM-dVJ-1" vertex="1">
          <mxGeometry x="100" y="100" width="30" height="30" as="geometry" />
        </mxCell>
        <mxCell id="MCTIEd8ayWj7sPqM-dVJ-27" value="" style="shape=cube;whiteSpace=wrap;html=1;boundedLbl=1;backgroundOutline=1;darkOpacity=0.05;darkOpacity2=0.1;size=10;rotation=90;" parent="MCTIEd8ayWj7sPqM-dVJ-1" vertex="1">
          <mxGeometry x="100" y="80" width="30" height="30" as="geometry" />
        </mxCell>
        <mxCell id="MCTIEd8ayWj7sPqM-dVJ-28" value="" style="shape=cube;whiteSpace=wrap;html=1;boundedLbl=1;backgroundOutline=1;darkOpacity=0.05;darkOpacity2=0.1;size=10;rotation=90;" parent="MCTIEd8ayWj7sPqM-dVJ-1" vertex="1">
          <mxGeometry x="100" y="60" width="30" height="30" as="geometry" />
        </mxCell>
        <mxCell id="MCTIEd8ayWj7sPqM-dVJ-29" value="" style="shape=cube;whiteSpace=wrap;html=1;boundedLbl=1;backgroundOutline=1;darkOpacity=0.05;darkOpacity2=0.1;size=10;rotation=90;" parent="MCTIEd8ayWj7sPqM-dVJ-1" vertex="1">
          <mxGeometry x="100" y="40" width="30" height="30" as="geometry" />
        </mxCell>
        <mxCell id="MCTIEd8ayWj7sPqM-dVJ-30" value="" style="shape=cube;whiteSpace=wrap;html=1;boundedLbl=1;backgroundOutline=1;darkOpacity=0.05;darkOpacity2=0.1;size=10;rotation=90;" parent="MCTIEd8ayWj7sPqM-dVJ-1" vertex="1">
          <mxGeometry x="100" y="20" width="30" height="30" as="geometry" />
        </mxCell>
        <mxCell id="MCTIEd8ayWj7sPqM-dVJ-31" value="" style="shape=cube;whiteSpace=wrap;html=1;boundedLbl=1;backgroundOutline=1;darkOpacity=0.05;darkOpacity2=0.1;size=10;rotation=90;" parent="MCTIEd8ayWj7sPqM-dVJ-1" vertex="1">
          <mxGeometry x="100" width="30" height="30" as="geometry" />
        </mxCell>
        <mxCell id="MCTIEd8ayWj7sPqM-dVJ-32" value="" style="shape=cube;whiteSpace=wrap;html=1;boundedLbl=1;backgroundOutline=1;darkOpacity=0.05;darkOpacity2=0.1;size=10;rotation=90;" parent="MCTIEd8ayWj7sPqM-dVJ-1" vertex="1">
          <mxGeometry x="120" y="100" width="30" height="30" as="geometry" />
        </mxCell>
        <mxCell id="MCTIEd8ayWj7sPqM-dVJ-33" value="" style="shape=cube;whiteSpace=wrap;html=1;boundedLbl=1;backgroundOutline=1;darkOpacity=0.05;darkOpacity2=0.1;size=10;rotation=90;" parent="MCTIEd8ayWj7sPqM-dVJ-1" vertex="1">
          <mxGeometry x="120" y="80" width="30" height="30" as="geometry" />
        </mxCell>
        <mxCell id="MCTIEd8ayWj7sPqM-dVJ-34" value="" style="shape=cube;whiteSpace=wrap;html=1;boundedLbl=1;backgroundOutline=1;darkOpacity=0.05;darkOpacity2=0.1;size=10;rotation=90;" parent="MCTIEd8ayWj7sPqM-dVJ-1" vertex="1">
          <mxGeometry x="120" y="60" width="30" height="30" as="geometry" />
        </mxCell>
        <mxCell id="MCTIEd8ayWj7sPqM-dVJ-35" value="" style="shape=cube;whiteSpace=wrap;html=1;boundedLbl=1;backgroundOutline=1;darkOpacity=0.05;darkOpacity2=0.1;size=10;rotation=90;" parent="MCTIEd8ayWj7sPqM-dVJ-1" vertex="1">
          <mxGeometry x="120" y="40" width="30" height="30" as="geometry" />
        </mxCell>
        <mxCell id="MCTIEd8ayWj7sPqM-dVJ-36" value="" style="shape=cube;whiteSpace=wrap;html=1;boundedLbl=1;backgroundOutline=1;darkOpacity=0.05;darkOpacity2=0.1;size=10;rotation=90;" parent="MCTIEd8ayWj7sPqM-dVJ-1" vertex="1">
          <mxGeometry x="120" y="20" width="30" height="30" as="geometry" />
        </mxCell>
        <mxCell id="MCTIEd8ayWj7sPqM-dVJ-37" value="" style="shape=cube;whiteSpace=wrap;html=1;boundedLbl=1;backgroundOutline=1;darkOpacity=0.05;darkOpacity2=0.1;size=10;rotation=90;" parent="MCTIEd8ayWj7sPqM-dVJ-1" vertex="1">
          <mxGeometry x="120" width="30" height="30" as="geometry" />
        </mxCell>
        <mxCell id="MCTIEd8ayWj7sPqM-dVJ-38" value="" style="shape=cube;whiteSpace=wrap;html=1;boundedLbl=1;backgroundOutline=1;darkOpacity=0.05;darkOpacity2=0.1;size=10;rotation=90;" parent="MCTIEd8ayWj7sPqM-dVJ-1" vertex="1">
          <mxGeometry x="10" y="110" width="30" height="30" as="geometry" />
        </mxCell>
        <mxCell id="MCTIEd8ayWj7sPqM-dVJ-39" value="" style="shape=cube;whiteSpace=wrap;html=1;boundedLbl=1;backgroundOutline=1;darkOpacity=0.05;darkOpacity2=0.1;size=10;rotation=90;" parent="MCTIEd8ayWj7sPqM-dVJ-1" vertex="1">
          <mxGeometry x="10" y="90" width="30" height="30" as="geometry" />
        </mxCell>
        <mxCell id="MCTIEd8ayWj7sPqM-dVJ-40" value="" style="shape=cube;whiteSpace=wrap;html=1;boundedLbl=1;backgroundOutline=1;darkOpacity=0.05;darkOpacity2=0.1;size=10;rotation=90;" parent="MCTIEd8ayWj7sPqM-dVJ-1" vertex="1">
          <mxGeometry x="10" y="70" width="30" height="30" as="geometry" />
        </mxCell>
        <mxCell id="MCTIEd8ayWj7sPqM-dVJ-41" value="" style="shape=cube;whiteSpace=wrap;html=1;boundedLbl=1;backgroundOutline=1;darkOpacity=0.05;darkOpacity2=0.1;size=10;rotation=90;" parent="MCTIEd8ayWj7sPqM-dVJ-1" vertex="1">
          <mxGeometry x="10" y="50" width="30" height="30" as="geometry" />
        </mxCell>
        <mxCell id="MCTIEd8ayWj7sPqM-dVJ-42" value="" style="shape=cube;whiteSpace=wrap;html=1;boundedLbl=1;backgroundOutline=1;darkOpacity=0.05;darkOpacity2=0.1;size=10;rotation=90;" parent="MCTIEd8ayWj7sPqM-dVJ-1" vertex="1">
          <mxGeometry x="10" y="30" width="30" height="30" as="geometry" />
        </mxCell>
        <mxCell id="MCTIEd8ayWj7sPqM-dVJ-43" value="" style="shape=cube;whiteSpace=wrap;html=1;boundedLbl=1;backgroundOutline=1;darkOpacity=0.05;darkOpacity2=0.1;size=10;rotation=90;" parent="MCTIEd8ayWj7sPqM-dVJ-1" vertex="1">
          <mxGeometry x="10" y="10" width="30" height="30" as="geometry" />
        </mxCell>
        <mxCell id="MCTIEd8ayWj7sPqM-dVJ-44" value="" style="shape=cube;whiteSpace=wrap;html=1;boundedLbl=1;backgroundOutline=1;darkOpacity=0.05;darkOpacity2=0.1;size=10;rotation=90;" parent="MCTIEd8ayWj7sPqM-dVJ-1" vertex="1">
          <mxGeometry x="30" y="110" width="30" height="30" as="geometry" />
        </mxCell>
        <mxCell id="MCTIEd8ayWj7sPqM-dVJ-45" value="" style="shape=cube;whiteSpace=wrap;html=1;boundedLbl=1;backgroundOutline=1;darkOpacity=0.05;darkOpacity2=0.1;size=10;rotation=90;" parent="MCTIEd8ayWj7sPqM-dVJ-1" vertex="1">
          <mxGeometry x="30" y="90" width="30" height="30" as="geometry" />
        </mxCell>
        <mxCell id="MCTIEd8ayWj7sPqM-dVJ-46" value="" style="shape=cube;whiteSpace=wrap;html=1;boundedLbl=1;backgroundOutline=1;darkOpacity=0.05;darkOpacity2=0.1;size=10;rotation=90;" parent="MCTIEd8ayWj7sPqM-dVJ-1" vertex="1">
          <mxGeometry x="30" y="70" width="30" height="30" as="geometry" />
        </mxCell>
        <mxCell id="MCTIEd8ayWj7sPqM-dVJ-47" value="" style="shape=cube;whiteSpace=wrap;html=1;boundedLbl=1;backgroundOutline=1;darkOpacity=0.05;darkOpacity2=0.1;size=10;rotation=90;" parent="MCTIEd8ayWj7sPqM-dVJ-1" vertex="1">
          <mxGeometry x="30" y="50" width="30" height="30" as="geometry" />
        </mxCell>
        <mxCell id="MCTIEd8ayWj7sPqM-dVJ-48" value="" style="shape=cube;whiteSpace=wrap;html=1;boundedLbl=1;backgroundOutline=1;darkOpacity=0.05;darkOpacity2=0.1;size=10;rotation=90;" parent="MCTIEd8ayWj7sPqM-dVJ-1" vertex="1">
          <mxGeometry x="30" y="30" width="30" height="30" as="geometry" />
        </mxCell>
        <mxCell id="MCTIEd8ayWj7sPqM-dVJ-49" value="" style="shape=cube;whiteSpace=wrap;html=1;boundedLbl=1;backgroundOutline=1;darkOpacity=0.05;darkOpacity2=0.1;size=10;rotation=90;" parent="MCTIEd8ayWj7sPqM-dVJ-1" vertex="1">
          <mxGeometry x="30" y="10" width="30" height="30" as="geometry" />
        </mxCell>
        <mxCell id="MCTIEd8ayWj7sPqM-dVJ-50" value="" style="shape=cube;whiteSpace=wrap;html=1;boundedLbl=1;backgroundOutline=1;darkOpacity=0.05;darkOpacity2=0.1;size=10;rotation=90;" parent="MCTIEd8ayWj7sPqM-dVJ-1" vertex="1">
          <mxGeometry x="50" y="110" width="30" height="30" as="geometry" />
        </mxCell>
        <mxCell id="MCTIEd8ayWj7sPqM-dVJ-51" value="" style="shape=cube;whiteSpace=wrap;html=1;boundedLbl=1;backgroundOutline=1;darkOpacity=0.05;darkOpacity2=0.1;size=10;rotation=90;" parent="MCTIEd8ayWj7sPqM-dVJ-1" vertex="1">
          <mxGeometry x="50" y="90" width="30" height="30" as="geometry" />
        </mxCell>
        <mxCell id="MCTIEd8ayWj7sPqM-dVJ-52" value="" style="shape=cube;whiteSpace=wrap;html=1;boundedLbl=1;backgroundOutline=1;darkOpacity=0.05;darkOpacity2=0.1;size=10;rotation=90;" parent="MCTIEd8ayWj7sPqM-dVJ-1" vertex="1">
          <mxGeometry x="50" y="70" width="30" height="30" as="geometry" />
        </mxCell>
        <mxCell id="MCTIEd8ayWj7sPqM-dVJ-53" value="" style="shape=cube;whiteSpace=wrap;html=1;boundedLbl=1;backgroundOutline=1;darkOpacity=0.05;darkOpacity2=0.1;size=10;rotation=90;" parent="MCTIEd8ayWj7sPqM-dVJ-1" vertex="1">
          <mxGeometry x="50" y="50" width="30" height="30" as="geometry" />
        </mxCell>
        <mxCell id="MCTIEd8ayWj7sPqM-dVJ-54" value="" style="shape=cube;whiteSpace=wrap;html=1;boundedLbl=1;backgroundOutline=1;darkOpacity=0.05;darkOpacity2=0.1;size=10;rotation=90;" parent="MCTIEd8ayWj7sPqM-dVJ-1" vertex="1">
          <mxGeometry x="50" y="30" width="30" height="30" as="geometry" />
        </mxCell>
        <mxCell id="MCTIEd8ayWj7sPqM-dVJ-55" value="" style="shape=cube;whiteSpace=wrap;html=1;boundedLbl=1;backgroundOutline=1;darkOpacity=0.05;darkOpacity2=0.1;size=10;rotation=90;" parent="MCTIEd8ayWj7sPqM-dVJ-1" vertex="1">
          <mxGeometry x="50" y="10" width="30" height="30" as="geometry" />
        </mxCell>
        <mxCell id="MCTIEd8ayWj7sPqM-dVJ-56" value="" style="shape=cube;whiteSpace=wrap;html=1;boundedLbl=1;backgroundOutline=1;darkOpacity=0.05;darkOpacity2=0.1;size=10;rotation=90;" parent="MCTIEd8ayWj7sPqM-dVJ-1" vertex="1">
          <mxGeometry x="70" y="110" width="30" height="30" as="geometry" />
        </mxCell>
        <mxCell id="MCTIEd8ayWj7sPqM-dVJ-57" value="" style="shape=cube;whiteSpace=wrap;html=1;boundedLbl=1;backgroundOutline=1;darkOpacity=0.05;darkOpacity2=0.1;size=10;rotation=90;" parent="MCTIEd8ayWj7sPqM-dVJ-1" vertex="1">
          <mxGeometry x="70" y="90" width="30" height="30" as="geometry" />
        </mxCell>
        <mxCell id="MCTIEd8ayWj7sPqM-dVJ-58" value="" style="shape=cube;whiteSpace=wrap;html=1;boundedLbl=1;backgroundOutline=1;darkOpacity=0.05;darkOpacity2=0.1;size=10;rotation=90;" parent="MCTIEd8ayWj7sPqM-dVJ-1" vertex="1">
          <mxGeometry x="70" y="70" width="30" height="30" as="geometry" />
        </mxCell>
        <mxCell id="MCTIEd8ayWj7sPqM-dVJ-59" value="" style="shape=cube;whiteSpace=wrap;html=1;boundedLbl=1;backgroundOutline=1;darkOpacity=0.05;darkOpacity2=0.1;size=10;rotation=90;" parent="MCTIEd8ayWj7sPqM-dVJ-1" vertex="1">
          <mxGeometry x="70" y="50" width="30" height="30" as="geometry" />
        </mxCell>
        <mxCell id="MCTIEd8ayWj7sPqM-dVJ-60" value="" style="shape=cube;whiteSpace=wrap;html=1;boundedLbl=1;backgroundOutline=1;darkOpacity=0.05;darkOpacity2=0.1;size=10;rotation=90;" parent="MCTIEd8ayWj7sPqM-dVJ-1" vertex="1">
          <mxGeometry x="70" y="30" width="30" height="30" as="geometry" />
        </mxCell>
        <mxCell id="MCTIEd8ayWj7sPqM-dVJ-61" value="" style="shape=cube;whiteSpace=wrap;html=1;boundedLbl=1;backgroundOutline=1;darkOpacity=0.05;darkOpacity2=0.1;size=10;rotation=90;" parent="MCTIEd8ayWj7sPqM-dVJ-1" vertex="1">
          <mxGeometry x="70" y="10" width="30" height="30" as="geometry" />
        </mxCell>
        <mxCell id="MCTIEd8ayWj7sPqM-dVJ-62" value="" style="shape=cube;whiteSpace=wrap;html=1;boundedLbl=1;backgroundOutline=1;darkOpacity=0.05;darkOpacity2=0.1;size=10;rotation=90;" parent="MCTIEd8ayWj7sPqM-dVJ-1" vertex="1">
          <mxGeometry x="90" y="110" width="30" height="30" as="geometry" />
        </mxCell>
        <mxCell id="MCTIEd8ayWj7sPqM-dVJ-63" value="" style="shape=cube;whiteSpace=wrap;html=1;boundedLbl=1;backgroundOutline=1;darkOpacity=0.05;darkOpacity2=0.1;size=10;rotation=90;" parent="MCTIEd8ayWj7sPqM-dVJ-1" vertex="1">
          <mxGeometry x="90" y="90" width="30" height="30" as="geometry" />
        </mxCell>
        <mxCell id="MCTIEd8ayWj7sPqM-dVJ-64" value="" style="shape=cube;whiteSpace=wrap;html=1;boundedLbl=1;backgroundOutline=1;darkOpacity=0.05;darkOpacity2=0.1;size=10;rotation=90;" parent="MCTIEd8ayWj7sPqM-dVJ-1" vertex="1">
          <mxGeometry x="90" y="70" width="30" height="30" as="geometry" />
        </mxCell>
        <mxCell id="MCTIEd8ayWj7sPqM-dVJ-65" value="" style="shape=cube;whiteSpace=wrap;html=1;boundedLbl=1;backgroundOutline=1;darkOpacity=0.05;darkOpacity2=0.1;size=10;rotation=90;" parent="MCTIEd8ayWj7sPqM-dVJ-1" vertex="1">
          <mxGeometry x="90" y="50" width="30" height="30" as="geometry" />
        </mxCell>
        <mxCell id="MCTIEd8ayWj7sPqM-dVJ-66" value="" style="shape=cube;whiteSpace=wrap;html=1;boundedLbl=1;backgroundOutline=1;darkOpacity=0.05;darkOpacity2=0.1;size=10;rotation=90;" parent="MCTIEd8ayWj7sPqM-dVJ-1" vertex="1">
          <mxGeometry x="90" y="30" width="30" height="30" as="geometry" />
        </mxCell>
        <mxCell id="MCTIEd8ayWj7sPqM-dVJ-67" value="" style="shape=cube;whiteSpace=wrap;html=1;boundedLbl=1;backgroundOutline=1;darkOpacity=0.05;darkOpacity2=0.1;size=10;rotation=90;" parent="MCTIEd8ayWj7sPqM-dVJ-1" vertex="1">
          <mxGeometry x="90" y="10" width="30" height="30" as="geometry" />
        </mxCell>
        <mxCell id="MCTIEd8ayWj7sPqM-dVJ-68" value="" style="shape=cube;whiteSpace=wrap;html=1;boundedLbl=1;backgroundOutline=1;darkOpacity=0.05;darkOpacity2=0.1;size=10;rotation=90;" parent="MCTIEd8ayWj7sPqM-dVJ-1" vertex="1">
          <mxGeometry x="110" y="110" width="30" height="30" as="geometry" />
        </mxCell>
        <mxCell id="MCTIEd8ayWj7sPqM-dVJ-69" value="" style="shape=cube;whiteSpace=wrap;html=1;boundedLbl=1;backgroundOutline=1;darkOpacity=0.05;darkOpacity2=0.1;size=10;rotation=90;" parent="MCTIEd8ayWj7sPqM-dVJ-1" vertex="1">
          <mxGeometry x="110" y="90" width="30" height="30" as="geometry" />
        </mxCell>
        <mxCell id="MCTIEd8ayWj7sPqM-dVJ-70" value="" style="shape=cube;whiteSpace=wrap;html=1;boundedLbl=1;backgroundOutline=1;darkOpacity=0.05;darkOpacity2=0.1;size=10;rotation=90;" parent="MCTIEd8ayWj7sPqM-dVJ-1" vertex="1">
          <mxGeometry x="110" y="70" width="30" height="30" as="geometry" />
        </mxCell>
        <mxCell id="MCTIEd8ayWj7sPqM-dVJ-71" value="" style="shape=cube;whiteSpace=wrap;html=1;boundedLbl=1;backgroundOutline=1;darkOpacity=0.05;darkOpacity2=0.1;size=10;rotation=90;" parent="MCTIEd8ayWj7sPqM-dVJ-1" vertex="1">
          <mxGeometry x="110" y="50" width="30" height="30" as="geometry" />
        </mxCell>
        <mxCell id="MCTIEd8ayWj7sPqM-dVJ-72" value="" style="shape=cube;whiteSpace=wrap;html=1;boundedLbl=1;backgroundOutline=1;darkOpacity=0.05;darkOpacity2=0.1;size=10;rotation=90;" parent="MCTIEd8ayWj7sPqM-dVJ-1" vertex="1">
          <mxGeometry x="110" y="30" width="30" height="30" as="geometry" />
        </mxCell>
        <mxCell id="MCTIEd8ayWj7sPqM-dVJ-73" value="" style="shape=cube;whiteSpace=wrap;html=1;boundedLbl=1;backgroundOutline=1;darkOpacity=0.05;darkOpacity2=0.1;size=10;rotation=90;" parent="MCTIEd8ayWj7sPqM-dVJ-1" vertex="1">
          <mxGeometry x="110" y="10" width="30" height="30" as="geometry" />
        </mxCell>
        <mxCell id="MCTIEd8ayWj7sPqM-dVJ-74" value="" style="shape=cube;whiteSpace=wrap;html=1;boundedLbl=1;backgroundOutline=1;darkOpacity=0.05;darkOpacity2=0.1;size=10;rotation=90;" parent="MCTIEd8ayWj7sPqM-dVJ-1" vertex="1">
          <mxGeometry y="120" width="30" height="30" as="geometry" />
        </mxCell>
        <mxCell id="MCTIEd8ayWj7sPqM-dVJ-75" value="" style="shape=cube;whiteSpace=wrap;html=1;boundedLbl=1;backgroundOutline=1;darkOpacity=0.05;darkOpacity2=0.1;size=10;rotation=90;" parent="MCTIEd8ayWj7sPqM-dVJ-1" vertex="1">
          <mxGeometry y="100" width="30" height="30" as="geometry" />
        </mxCell>
        <mxCell id="MCTIEd8ayWj7sPqM-dVJ-76" value="" style="shape=cube;whiteSpace=wrap;html=1;boundedLbl=1;backgroundOutline=1;darkOpacity=0.05;darkOpacity2=0.1;size=10;rotation=90;" parent="MCTIEd8ayWj7sPqM-dVJ-1" vertex="1">
          <mxGeometry y="80" width="30" height="30" as="geometry" />
        </mxCell>
        <mxCell id="MCTIEd8ayWj7sPqM-dVJ-77" value="" style="shape=cube;whiteSpace=wrap;html=1;boundedLbl=1;backgroundOutline=1;darkOpacity=0.05;darkOpacity2=0.1;size=10;rotation=90;" parent="MCTIEd8ayWj7sPqM-dVJ-1" vertex="1">
          <mxGeometry y="60" width="30" height="30" as="geometry" />
        </mxCell>
        <mxCell id="MCTIEd8ayWj7sPqM-dVJ-78" value="" style="shape=cube;whiteSpace=wrap;html=1;boundedLbl=1;backgroundOutline=1;darkOpacity=0.05;darkOpacity2=0.1;size=10;rotation=90;" parent="MCTIEd8ayWj7sPqM-dVJ-1" vertex="1">
          <mxGeometry y="40" width="30" height="30" as="geometry" />
        </mxCell>
        <mxCell id="MCTIEd8ayWj7sPqM-dVJ-79" value="" style="shape=cube;whiteSpace=wrap;html=1;boundedLbl=1;backgroundOutline=1;darkOpacity=0.05;darkOpacity2=0.1;size=10;rotation=90;" parent="MCTIEd8ayWj7sPqM-dVJ-1" vertex="1">
          <mxGeometry y="20" width="30" height="30" as="geometry" />
        </mxCell>
        <mxCell id="MCTIEd8ayWj7sPqM-dVJ-80" value="" style="shape=cube;whiteSpace=wrap;html=1;boundedLbl=1;backgroundOutline=1;darkOpacity=0.05;darkOpacity2=0.1;size=10;rotation=90;" parent="MCTIEd8ayWj7sPqM-dVJ-1" vertex="1">
          <mxGeometry x="20" y="120" width="30" height="30" as="geometry" />
        </mxCell>
        <mxCell id="MCTIEd8ayWj7sPqM-dVJ-81" value="" style="shape=cube;whiteSpace=wrap;html=1;boundedLbl=1;backgroundOutline=1;darkOpacity=0.05;darkOpacity2=0.1;size=10;rotation=90;" parent="MCTIEd8ayWj7sPqM-dVJ-1" vertex="1">
          <mxGeometry x="20" y="100" width="30" height="30" as="geometry" />
        </mxCell>
        <mxCell id="MCTIEd8ayWj7sPqM-dVJ-82" value="" style="shape=cube;whiteSpace=wrap;html=1;boundedLbl=1;backgroundOutline=1;darkOpacity=0.05;darkOpacity2=0.1;size=10;rotation=90;" parent="MCTIEd8ayWj7sPqM-dVJ-1" vertex="1">
          <mxGeometry x="20" y="80" width="30" height="30" as="geometry" />
        </mxCell>
        <mxCell id="MCTIEd8ayWj7sPqM-dVJ-83" value="" style="shape=cube;whiteSpace=wrap;html=1;boundedLbl=1;backgroundOutline=1;darkOpacity=0.05;darkOpacity2=0.1;size=10;rotation=90;" parent="MCTIEd8ayWj7sPqM-dVJ-1" vertex="1">
          <mxGeometry x="20" y="60" width="30" height="30" as="geometry" />
        </mxCell>
        <mxCell id="MCTIEd8ayWj7sPqM-dVJ-84" value="" style="shape=cube;whiteSpace=wrap;html=1;boundedLbl=1;backgroundOutline=1;darkOpacity=0.05;darkOpacity2=0.1;size=10;rotation=90;" parent="MCTIEd8ayWj7sPqM-dVJ-1" vertex="1">
          <mxGeometry x="20" y="40" width="30" height="30" as="geometry" />
        </mxCell>
        <mxCell id="MCTIEd8ayWj7sPqM-dVJ-85" value="" style="shape=cube;whiteSpace=wrap;html=1;boundedLbl=1;backgroundOutline=1;darkOpacity=0.05;darkOpacity2=0.1;size=10;rotation=90;" parent="MCTIEd8ayWj7sPqM-dVJ-1" vertex="1">
          <mxGeometry x="20" y="20" width="30" height="30" as="geometry" />
        </mxCell>
        <mxCell id="MCTIEd8ayWj7sPqM-dVJ-86" value="" style="shape=cube;whiteSpace=wrap;html=1;boundedLbl=1;backgroundOutline=1;darkOpacity=0.05;darkOpacity2=0.1;size=10;rotation=90;" parent="MCTIEd8ayWj7sPqM-dVJ-1" vertex="1">
          <mxGeometry x="40" y="120" width="30" height="30" as="geometry" />
        </mxCell>
        <mxCell id="MCTIEd8ayWj7sPqM-dVJ-87" value="" style="shape=cube;whiteSpace=wrap;html=1;boundedLbl=1;backgroundOutline=1;darkOpacity=0.05;darkOpacity2=0.1;size=10;rotation=90;" parent="MCTIEd8ayWj7sPqM-dVJ-1" vertex="1">
          <mxGeometry x="40" y="100" width="30" height="30" as="geometry" />
        </mxCell>
        <mxCell id="MCTIEd8ayWj7sPqM-dVJ-88" value="" style="shape=cube;whiteSpace=wrap;html=1;boundedLbl=1;backgroundOutline=1;darkOpacity=0.05;darkOpacity2=0.1;size=10;rotation=90;" parent="MCTIEd8ayWj7sPqM-dVJ-1" vertex="1">
          <mxGeometry x="40" y="80" width="30" height="30" as="geometry" />
        </mxCell>
        <mxCell id="MCTIEd8ayWj7sPqM-dVJ-89" value="" style="shape=cube;whiteSpace=wrap;html=1;boundedLbl=1;backgroundOutline=1;darkOpacity=0.05;darkOpacity2=0.1;size=10;rotation=90;" parent="MCTIEd8ayWj7sPqM-dVJ-1" vertex="1">
          <mxGeometry x="40" y="60" width="30" height="30" as="geometry" />
        </mxCell>
        <mxCell id="MCTIEd8ayWj7sPqM-dVJ-90" value="" style="shape=cube;whiteSpace=wrap;html=1;boundedLbl=1;backgroundOutline=1;darkOpacity=0.05;darkOpacity2=0.1;size=10;rotation=90;" parent="MCTIEd8ayWj7sPqM-dVJ-1" vertex="1">
          <mxGeometry x="40" y="40" width="30" height="30" as="geometry" />
        </mxCell>
        <mxCell id="MCTIEd8ayWj7sPqM-dVJ-91" value="" style="shape=cube;whiteSpace=wrap;html=1;boundedLbl=1;backgroundOutline=1;darkOpacity=0.05;darkOpacity2=0.1;size=10;rotation=90;" parent="MCTIEd8ayWj7sPqM-dVJ-1" vertex="1">
          <mxGeometry x="40" y="20" width="30" height="30" as="geometry" />
        </mxCell>
        <mxCell id="MCTIEd8ayWj7sPqM-dVJ-92" value="" style="shape=cube;whiteSpace=wrap;html=1;boundedLbl=1;backgroundOutline=1;darkOpacity=0.05;darkOpacity2=0.1;size=10;rotation=90;" parent="MCTIEd8ayWj7sPqM-dVJ-1" vertex="1">
          <mxGeometry x="60" y="120" width="30" height="30" as="geometry" />
        </mxCell>
        <mxCell id="MCTIEd8ayWj7sPqM-dVJ-93" value="" style="shape=cube;whiteSpace=wrap;html=1;boundedLbl=1;backgroundOutline=1;darkOpacity=0.05;darkOpacity2=0.1;size=10;rotation=90;" parent="MCTIEd8ayWj7sPqM-dVJ-1" vertex="1">
          <mxGeometry x="60" y="100" width="30" height="30" as="geometry" />
        </mxCell>
        <mxCell id="MCTIEd8ayWj7sPqM-dVJ-94" value="" style="shape=cube;whiteSpace=wrap;html=1;boundedLbl=1;backgroundOutline=1;darkOpacity=0.05;darkOpacity2=0.1;size=10;rotation=90;" parent="MCTIEd8ayWj7sPqM-dVJ-1" vertex="1">
          <mxGeometry x="60" y="80" width="30" height="30" as="geometry" />
        </mxCell>
        <mxCell id="MCTIEd8ayWj7sPqM-dVJ-95" value="" style="shape=cube;whiteSpace=wrap;html=1;boundedLbl=1;backgroundOutline=1;darkOpacity=0.05;darkOpacity2=0.1;size=10;rotation=90;" parent="MCTIEd8ayWj7sPqM-dVJ-1" vertex="1">
          <mxGeometry x="60" y="60" width="30" height="30" as="geometry" />
        </mxCell>
        <mxCell id="MCTIEd8ayWj7sPqM-dVJ-96" value="" style="shape=cube;whiteSpace=wrap;html=1;boundedLbl=1;backgroundOutline=1;darkOpacity=0.05;darkOpacity2=0.1;size=10;rotation=90;" parent="MCTIEd8ayWj7sPqM-dVJ-1" vertex="1">
          <mxGeometry x="60" y="40" width="30" height="30" as="geometry" />
        </mxCell>
        <mxCell id="MCTIEd8ayWj7sPqM-dVJ-97" value="" style="shape=cube;whiteSpace=wrap;html=1;boundedLbl=1;backgroundOutline=1;darkOpacity=0.05;darkOpacity2=0.1;size=10;rotation=90;" parent="MCTIEd8ayWj7sPqM-dVJ-1" vertex="1">
          <mxGeometry x="60" y="20" width="30" height="30" as="geometry" />
        </mxCell>
        <mxCell id="MCTIEd8ayWj7sPqM-dVJ-98" value="" style="shape=cube;whiteSpace=wrap;html=1;boundedLbl=1;backgroundOutline=1;darkOpacity=0.05;darkOpacity2=0.1;size=10;rotation=90;" parent="MCTIEd8ayWj7sPqM-dVJ-1" vertex="1">
          <mxGeometry x="80" y="120" width="30" height="30" as="geometry" />
        </mxCell>
        <mxCell id="MCTIEd8ayWj7sPqM-dVJ-99" value="" style="shape=cube;whiteSpace=wrap;html=1;boundedLbl=1;backgroundOutline=1;darkOpacity=0.05;darkOpacity2=0.1;size=10;rotation=90;" parent="MCTIEd8ayWj7sPqM-dVJ-1" vertex="1">
          <mxGeometry x="80" y="100" width="30" height="30" as="geometry" />
        </mxCell>
        <mxCell id="MCTIEd8ayWj7sPqM-dVJ-100" value="" style="shape=cube;whiteSpace=wrap;html=1;boundedLbl=1;backgroundOutline=1;darkOpacity=0.05;darkOpacity2=0.1;size=10;rotation=90;" parent="MCTIEd8ayWj7sPqM-dVJ-1" vertex="1">
          <mxGeometry x="80" y="80" width="30" height="30" as="geometry" />
        </mxCell>
        <mxCell id="MCTIEd8ayWj7sPqM-dVJ-101" value="" style="shape=cube;whiteSpace=wrap;html=1;boundedLbl=1;backgroundOutline=1;darkOpacity=0.05;darkOpacity2=0.1;size=10;rotation=90;" parent="MCTIEd8ayWj7sPqM-dVJ-1" vertex="1">
          <mxGeometry x="80" y="60" width="30" height="30" as="geometry" />
        </mxCell>
        <mxCell id="MCTIEd8ayWj7sPqM-dVJ-102" value="" style="shape=cube;whiteSpace=wrap;html=1;boundedLbl=1;backgroundOutline=1;darkOpacity=0.05;darkOpacity2=0.1;size=10;rotation=90;" parent="MCTIEd8ayWj7sPqM-dVJ-1" vertex="1">
          <mxGeometry x="80" y="40" width="30" height="30" as="geometry" />
        </mxCell>
        <mxCell id="MCTIEd8ayWj7sPqM-dVJ-103" value="" style="shape=cube;whiteSpace=wrap;html=1;boundedLbl=1;backgroundOutline=1;darkOpacity=0.05;darkOpacity2=0.1;size=10;rotation=90;" parent="MCTIEd8ayWj7sPqM-dVJ-1" vertex="1">
          <mxGeometry x="80" y="20" width="30" height="30" as="geometry" />
        </mxCell>
        <mxCell id="MCTIEd8ayWj7sPqM-dVJ-104" value="" style="shape=cube;whiteSpace=wrap;html=1;boundedLbl=1;backgroundOutline=1;darkOpacity=0.05;darkOpacity2=0.1;size=10;rotation=90;" parent="MCTIEd8ayWj7sPqM-dVJ-1" vertex="1">
          <mxGeometry x="100" y="120" width="30" height="30" as="geometry" />
        </mxCell>
        <mxCell id="MCTIEd8ayWj7sPqM-dVJ-105" value="" style="shape=cube;whiteSpace=wrap;html=1;boundedLbl=1;backgroundOutline=1;darkOpacity=0.05;darkOpacity2=0.1;size=10;rotation=90;" parent="MCTIEd8ayWj7sPqM-dVJ-1" vertex="1">
          <mxGeometry x="100" y="100" width="30" height="30" as="geometry" />
        </mxCell>
        <mxCell id="MCTIEd8ayWj7sPqM-dVJ-106" value="" style="shape=cube;whiteSpace=wrap;html=1;boundedLbl=1;backgroundOutline=1;darkOpacity=0.05;darkOpacity2=0.1;size=10;rotation=90;" parent="MCTIEd8ayWj7sPqM-dVJ-1" vertex="1">
          <mxGeometry x="100" y="80" width="30" height="30" as="geometry" />
        </mxCell>
        <mxCell id="MCTIEd8ayWj7sPqM-dVJ-107" value="" style="shape=cube;whiteSpace=wrap;html=1;boundedLbl=1;backgroundOutline=1;darkOpacity=0.05;darkOpacity2=0.1;size=10;rotation=90;" parent="MCTIEd8ayWj7sPqM-dVJ-1" vertex="1">
          <mxGeometry x="100" y="60" width="30" height="30" as="geometry" />
        </mxCell>
        <mxCell id="MCTIEd8ayWj7sPqM-dVJ-108" value="" style="shape=cube;whiteSpace=wrap;html=1;boundedLbl=1;backgroundOutline=1;darkOpacity=0.05;darkOpacity2=0.1;size=10;rotation=90;" parent="MCTIEd8ayWj7sPqM-dVJ-1" vertex="1">
          <mxGeometry x="100" y="40" width="30" height="30" as="geometry" />
        </mxCell>
        <mxCell id="MCTIEd8ayWj7sPqM-dVJ-109" value="" style="shape=cube;whiteSpace=wrap;html=1;boundedLbl=1;backgroundOutline=1;darkOpacity=0.05;darkOpacity2=0.1;size=10;rotation=90;" parent="MCTIEd8ayWj7sPqM-dVJ-1" vertex="1">
          <mxGeometry x="100" y="20" width="30" height="30" as="geometry" />
        </mxCell>
        <mxCell id="MCTIEd8ayWj7sPqM-dVJ-110" value="" style="group" parent="1" vertex="1" connectable="0">
          <mxGeometry x="350" y="90" width="150" height="150" as="geometry" />
        </mxCell>
        <mxCell id="MCTIEd8ayWj7sPqM-dVJ-111" value="" style="shape=cube;whiteSpace=wrap;html=1;boundedLbl=1;backgroundOutline=1;darkOpacity=0.05;darkOpacity2=0.1;size=10;rotation=90;" parent="MCTIEd8ayWj7sPqM-dVJ-110" vertex="1">
          <mxGeometry x="20" y="100" width="30" height="30" as="geometry" />
        </mxCell>
        <mxCell id="MCTIEd8ayWj7sPqM-dVJ-112" value="" style="shape=cube;whiteSpace=wrap;html=1;boundedLbl=1;backgroundOutline=1;darkOpacity=0.05;darkOpacity2=0.1;size=10;rotation=90;" parent="MCTIEd8ayWj7sPqM-dVJ-110" vertex="1">
          <mxGeometry x="20" y="80" width="30" height="30" as="geometry" />
        </mxCell>
        <mxCell id="MCTIEd8ayWj7sPqM-dVJ-113" value="" style="shape=cube;whiteSpace=wrap;html=1;boundedLbl=1;backgroundOutline=1;darkOpacity=0.05;darkOpacity2=0.1;size=10;rotation=90;" parent="MCTIEd8ayWj7sPqM-dVJ-110" vertex="1">
          <mxGeometry x="20" y="60" width="30" height="30" as="geometry" />
        </mxCell>
        <mxCell id="MCTIEd8ayWj7sPqM-dVJ-114" value="" style="shape=cube;whiteSpace=wrap;html=1;boundedLbl=1;backgroundOutline=1;darkOpacity=0.05;darkOpacity2=0.1;size=10;rotation=90;" parent="MCTIEd8ayWj7sPqM-dVJ-110" vertex="1">
          <mxGeometry x="20" y="40" width="30" height="30" as="geometry" />
        </mxCell>
        <mxCell id="MCTIEd8ayWj7sPqM-dVJ-115" value="" style="shape=cube;whiteSpace=wrap;html=1;boundedLbl=1;backgroundOutline=1;darkOpacity=0.05;darkOpacity2=0.1;size=10;rotation=90;" parent="MCTIEd8ayWj7sPqM-dVJ-110" vertex="1">
          <mxGeometry x="20" y="20" width="30" height="30" as="geometry" />
        </mxCell>
        <mxCell id="MCTIEd8ayWj7sPqM-dVJ-116" value="" style="shape=cube;whiteSpace=wrap;html=1;boundedLbl=1;backgroundOutline=1;darkOpacity=0.05;darkOpacity2=0.1;size=10;rotation=90;" parent="MCTIEd8ayWj7sPqM-dVJ-110" vertex="1">
          <mxGeometry x="20" width="30" height="30" as="geometry" />
        </mxCell>
        <mxCell id="MCTIEd8ayWj7sPqM-dVJ-117" value="" style="shape=cube;whiteSpace=wrap;html=1;boundedLbl=1;backgroundOutline=1;darkOpacity=0.05;darkOpacity2=0.1;size=10;rotation=90;" parent="MCTIEd8ayWj7sPqM-dVJ-110" vertex="1">
          <mxGeometry x="40" y="100" width="30" height="30" as="geometry" />
        </mxCell>
        <mxCell id="MCTIEd8ayWj7sPqM-dVJ-118" value="" style="shape=cube;whiteSpace=wrap;html=1;boundedLbl=1;backgroundOutline=1;darkOpacity=0.05;darkOpacity2=0.1;size=10;rotation=90;" parent="MCTIEd8ayWj7sPqM-dVJ-110" vertex="1">
          <mxGeometry x="40" y="80" width="30" height="30" as="geometry" />
        </mxCell>
        <mxCell id="MCTIEd8ayWj7sPqM-dVJ-119" value="" style="shape=cube;whiteSpace=wrap;html=1;boundedLbl=1;backgroundOutline=1;darkOpacity=0.05;darkOpacity2=0.1;size=10;rotation=90;" parent="MCTIEd8ayWj7sPqM-dVJ-110" vertex="1">
          <mxGeometry x="40" y="60" width="30" height="30" as="geometry" />
        </mxCell>
        <mxCell id="MCTIEd8ayWj7sPqM-dVJ-120" value="" style="shape=cube;whiteSpace=wrap;html=1;boundedLbl=1;backgroundOutline=1;darkOpacity=0.05;darkOpacity2=0.1;size=10;rotation=90;" parent="MCTIEd8ayWj7sPqM-dVJ-110" vertex="1">
          <mxGeometry x="40" y="40" width="30" height="30" as="geometry" />
        </mxCell>
        <mxCell id="MCTIEd8ayWj7sPqM-dVJ-121" value="" style="shape=cube;whiteSpace=wrap;html=1;boundedLbl=1;backgroundOutline=1;darkOpacity=0.05;darkOpacity2=0.1;size=10;rotation=90;" parent="MCTIEd8ayWj7sPqM-dVJ-110" vertex="1">
          <mxGeometry x="40" y="20" width="30" height="30" as="geometry" />
        </mxCell>
        <mxCell id="MCTIEd8ayWj7sPqM-dVJ-122" value="" style="shape=cube;whiteSpace=wrap;html=1;boundedLbl=1;backgroundOutline=1;darkOpacity=0.05;darkOpacity2=0.1;size=10;rotation=90;" parent="MCTIEd8ayWj7sPqM-dVJ-110" vertex="1">
          <mxGeometry x="40" width="30" height="30" as="geometry" />
        </mxCell>
        <mxCell id="MCTIEd8ayWj7sPqM-dVJ-123" value="" style="shape=cube;whiteSpace=wrap;html=1;boundedLbl=1;backgroundOutline=1;darkOpacity=0.05;darkOpacity2=0.1;size=10;rotation=90;" parent="MCTIEd8ayWj7sPqM-dVJ-110" vertex="1">
          <mxGeometry x="60" y="100" width="30" height="30" as="geometry" />
        </mxCell>
        <mxCell id="MCTIEd8ayWj7sPqM-dVJ-124" value="" style="shape=cube;whiteSpace=wrap;html=1;boundedLbl=1;backgroundOutline=1;darkOpacity=0.05;darkOpacity2=0.1;size=10;rotation=90;" parent="MCTIEd8ayWj7sPqM-dVJ-110" vertex="1">
          <mxGeometry x="60" y="80" width="30" height="30" as="geometry" />
        </mxCell>
        <mxCell id="MCTIEd8ayWj7sPqM-dVJ-125" value="" style="shape=cube;whiteSpace=wrap;html=1;boundedLbl=1;backgroundOutline=1;darkOpacity=0.05;darkOpacity2=0.1;size=10;rotation=90;" parent="MCTIEd8ayWj7sPqM-dVJ-110" vertex="1">
          <mxGeometry x="60" y="60" width="30" height="30" as="geometry" />
        </mxCell>
        <mxCell id="MCTIEd8ayWj7sPqM-dVJ-126" value="" style="shape=cube;whiteSpace=wrap;html=1;boundedLbl=1;backgroundOutline=1;darkOpacity=0.05;darkOpacity2=0.1;size=10;rotation=90;" parent="MCTIEd8ayWj7sPqM-dVJ-110" vertex="1">
          <mxGeometry x="60" y="40" width="30" height="30" as="geometry" />
        </mxCell>
        <mxCell id="MCTIEd8ayWj7sPqM-dVJ-127" value="" style="shape=cube;whiteSpace=wrap;html=1;boundedLbl=1;backgroundOutline=1;darkOpacity=0.05;darkOpacity2=0.1;size=10;rotation=90;" parent="MCTIEd8ayWj7sPqM-dVJ-110" vertex="1">
          <mxGeometry x="60" y="20" width="30" height="30" as="geometry" />
        </mxCell>
        <mxCell id="MCTIEd8ayWj7sPqM-dVJ-128" value="" style="shape=cube;whiteSpace=wrap;html=1;boundedLbl=1;backgroundOutline=1;darkOpacity=0.05;darkOpacity2=0.1;size=10;rotation=90;" parent="MCTIEd8ayWj7sPqM-dVJ-110" vertex="1">
          <mxGeometry x="60" width="30" height="30" as="geometry" />
        </mxCell>
        <mxCell id="MCTIEd8ayWj7sPqM-dVJ-129" value="" style="shape=cube;whiteSpace=wrap;html=1;boundedLbl=1;backgroundOutline=1;darkOpacity=0.05;darkOpacity2=0.1;size=10;rotation=90;" parent="MCTIEd8ayWj7sPqM-dVJ-110" vertex="1">
          <mxGeometry x="80" y="100" width="30" height="30" as="geometry" />
        </mxCell>
        <mxCell id="MCTIEd8ayWj7sPqM-dVJ-130" value="" style="shape=cube;whiteSpace=wrap;html=1;boundedLbl=1;backgroundOutline=1;darkOpacity=0.05;darkOpacity2=0.1;size=10;rotation=90;" parent="MCTIEd8ayWj7sPqM-dVJ-110" vertex="1">
          <mxGeometry x="80" y="80" width="30" height="30" as="geometry" />
        </mxCell>
        <mxCell id="MCTIEd8ayWj7sPqM-dVJ-131" value="" style="shape=cube;whiteSpace=wrap;html=1;boundedLbl=1;backgroundOutline=1;darkOpacity=0.05;darkOpacity2=0.1;size=10;rotation=90;" parent="MCTIEd8ayWj7sPqM-dVJ-110" vertex="1">
          <mxGeometry x="80" y="60" width="30" height="30" as="geometry" />
        </mxCell>
        <mxCell id="MCTIEd8ayWj7sPqM-dVJ-132" value="" style="shape=cube;whiteSpace=wrap;html=1;boundedLbl=1;backgroundOutline=1;darkOpacity=0.05;darkOpacity2=0.1;size=10;rotation=90;" parent="MCTIEd8ayWj7sPqM-dVJ-110" vertex="1">
          <mxGeometry x="80" y="40" width="30" height="30" as="geometry" />
        </mxCell>
        <mxCell id="MCTIEd8ayWj7sPqM-dVJ-133" value="" style="shape=cube;whiteSpace=wrap;html=1;boundedLbl=1;backgroundOutline=1;darkOpacity=0.05;darkOpacity2=0.1;size=10;rotation=90;" parent="MCTIEd8ayWj7sPqM-dVJ-110" vertex="1">
          <mxGeometry x="80" y="20" width="30" height="30" as="geometry" />
        </mxCell>
        <mxCell id="MCTIEd8ayWj7sPqM-dVJ-134" value="" style="shape=cube;whiteSpace=wrap;html=1;boundedLbl=1;backgroundOutline=1;darkOpacity=0.05;darkOpacity2=0.1;size=10;rotation=90;" parent="MCTIEd8ayWj7sPqM-dVJ-110" vertex="1">
          <mxGeometry x="80" width="30" height="30" as="geometry" />
        </mxCell>
        <mxCell id="MCTIEd8ayWj7sPqM-dVJ-135" value="" style="shape=cube;whiteSpace=wrap;html=1;boundedLbl=1;backgroundOutline=1;darkOpacity=0.05;darkOpacity2=0.1;size=10;rotation=90;" parent="MCTIEd8ayWj7sPqM-dVJ-110" vertex="1">
          <mxGeometry x="100" y="100" width="30" height="30" as="geometry" />
        </mxCell>
        <mxCell id="MCTIEd8ayWj7sPqM-dVJ-136" value="" style="shape=cube;whiteSpace=wrap;html=1;boundedLbl=1;backgroundOutline=1;darkOpacity=0.05;darkOpacity2=0.1;size=10;rotation=90;" parent="MCTIEd8ayWj7sPqM-dVJ-110" vertex="1">
          <mxGeometry x="100" y="80" width="30" height="30" as="geometry" />
        </mxCell>
        <mxCell id="MCTIEd8ayWj7sPqM-dVJ-137" value="" style="shape=cube;whiteSpace=wrap;html=1;boundedLbl=1;backgroundOutline=1;darkOpacity=0.05;darkOpacity2=0.1;size=10;rotation=90;" parent="MCTIEd8ayWj7sPqM-dVJ-110" vertex="1">
          <mxGeometry x="100" y="60" width="30" height="30" as="geometry" />
        </mxCell>
        <mxCell id="MCTIEd8ayWj7sPqM-dVJ-138" value="" style="shape=cube;whiteSpace=wrap;html=1;boundedLbl=1;backgroundOutline=1;darkOpacity=0.05;darkOpacity2=0.1;size=10;rotation=90;" parent="MCTIEd8ayWj7sPqM-dVJ-110" vertex="1">
          <mxGeometry x="100" y="40" width="30" height="30" as="geometry" />
        </mxCell>
        <mxCell id="MCTIEd8ayWj7sPqM-dVJ-139" value="" style="shape=cube;whiteSpace=wrap;html=1;boundedLbl=1;backgroundOutline=1;darkOpacity=0.05;darkOpacity2=0.1;size=10;rotation=90;" parent="MCTIEd8ayWj7sPqM-dVJ-110" vertex="1">
          <mxGeometry x="100" y="20" width="30" height="30" as="geometry" />
        </mxCell>
        <mxCell id="MCTIEd8ayWj7sPqM-dVJ-140" value="" style="shape=cube;whiteSpace=wrap;html=1;boundedLbl=1;backgroundOutline=1;darkOpacity=0.05;darkOpacity2=0.1;size=10;rotation=90;" parent="MCTIEd8ayWj7sPqM-dVJ-110" vertex="1">
          <mxGeometry x="100" width="30" height="30" as="geometry" />
        </mxCell>
        <mxCell id="MCTIEd8ayWj7sPqM-dVJ-141" value="" style="shape=cube;whiteSpace=wrap;html=1;boundedLbl=1;backgroundOutline=1;darkOpacity=0.05;darkOpacity2=0.1;size=10;rotation=90;" parent="MCTIEd8ayWj7sPqM-dVJ-110" vertex="1">
          <mxGeometry x="120" y="100" width="30" height="30" as="geometry" />
        </mxCell>
        <mxCell id="MCTIEd8ayWj7sPqM-dVJ-142" value="" style="shape=cube;whiteSpace=wrap;html=1;boundedLbl=1;backgroundOutline=1;darkOpacity=0.05;darkOpacity2=0.1;size=10;rotation=90;" parent="MCTIEd8ayWj7sPqM-dVJ-110" vertex="1">
          <mxGeometry x="120" y="80" width="30" height="30" as="geometry" />
        </mxCell>
        <mxCell id="MCTIEd8ayWj7sPqM-dVJ-143" value="" style="shape=cube;whiteSpace=wrap;html=1;boundedLbl=1;backgroundOutline=1;darkOpacity=0.05;darkOpacity2=0.1;size=10;rotation=90;" parent="MCTIEd8ayWj7sPqM-dVJ-110" vertex="1">
          <mxGeometry x="120" y="60" width="30" height="30" as="geometry" />
        </mxCell>
        <mxCell id="MCTIEd8ayWj7sPqM-dVJ-144" value="" style="shape=cube;whiteSpace=wrap;html=1;boundedLbl=1;backgroundOutline=1;darkOpacity=0.05;darkOpacity2=0.1;size=10;rotation=90;" parent="MCTIEd8ayWj7sPqM-dVJ-110" vertex="1">
          <mxGeometry x="120" y="40" width="30" height="30" as="geometry" />
        </mxCell>
        <mxCell id="MCTIEd8ayWj7sPqM-dVJ-145" value="" style="shape=cube;whiteSpace=wrap;html=1;boundedLbl=1;backgroundOutline=1;darkOpacity=0.05;darkOpacity2=0.1;size=10;rotation=90;" parent="MCTIEd8ayWj7sPqM-dVJ-110" vertex="1">
          <mxGeometry x="120" y="20" width="30" height="30" as="geometry" />
        </mxCell>
        <mxCell id="MCTIEd8ayWj7sPqM-dVJ-146" value="" style="shape=cube;whiteSpace=wrap;html=1;boundedLbl=1;backgroundOutline=1;darkOpacity=0.05;darkOpacity2=0.1;size=10;rotation=90;" parent="MCTIEd8ayWj7sPqM-dVJ-110" vertex="1">
          <mxGeometry x="120" width="30" height="30" as="geometry" />
        </mxCell>
        <mxCell id="MCTIEd8ayWj7sPqM-dVJ-147" value="" style="shape=cube;whiteSpace=wrap;html=1;boundedLbl=1;backgroundOutline=1;darkOpacity=0.05;darkOpacity2=0.1;size=10;rotation=90;" parent="MCTIEd8ayWj7sPqM-dVJ-110" vertex="1">
          <mxGeometry x="10" y="110" width="30" height="30" as="geometry" />
        </mxCell>
        <mxCell id="MCTIEd8ayWj7sPqM-dVJ-148" value="" style="shape=cube;whiteSpace=wrap;html=1;boundedLbl=1;backgroundOutline=1;darkOpacity=0.05;darkOpacity2=0.1;size=10;rotation=90;" parent="MCTIEd8ayWj7sPqM-dVJ-110" vertex="1">
          <mxGeometry x="10" y="90" width="30" height="30" as="geometry" />
        </mxCell>
        <mxCell id="MCTIEd8ayWj7sPqM-dVJ-149" value="" style="shape=cube;whiteSpace=wrap;html=1;boundedLbl=1;backgroundOutline=1;darkOpacity=0.05;darkOpacity2=0.1;size=10;rotation=90;" parent="MCTIEd8ayWj7sPqM-dVJ-110" vertex="1">
          <mxGeometry x="10" y="70" width="30" height="30" as="geometry" />
        </mxCell>
        <mxCell id="MCTIEd8ayWj7sPqM-dVJ-150" value="" style="shape=cube;whiteSpace=wrap;html=1;boundedLbl=1;backgroundOutline=1;darkOpacity=0.05;darkOpacity2=0.1;size=10;rotation=90;" parent="MCTIEd8ayWj7sPqM-dVJ-110" vertex="1">
          <mxGeometry x="10" y="50" width="30" height="30" as="geometry" />
        </mxCell>
        <mxCell id="MCTIEd8ayWj7sPqM-dVJ-151" value="" style="shape=cube;whiteSpace=wrap;html=1;boundedLbl=1;backgroundOutline=1;darkOpacity=0.05;darkOpacity2=0.1;size=10;rotation=90;" parent="MCTIEd8ayWj7sPqM-dVJ-110" vertex="1">
          <mxGeometry x="10" y="30" width="30" height="30" as="geometry" />
        </mxCell>
        <mxCell id="MCTIEd8ayWj7sPqM-dVJ-152" value="" style="shape=cube;whiteSpace=wrap;html=1;boundedLbl=1;backgroundOutline=1;darkOpacity=0.05;darkOpacity2=0.1;size=10;rotation=90;" parent="MCTIEd8ayWj7sPqM-dVJ-110" vertex="1">
          <mxGeometry x="10" y="10" width="30" height="30" as="geometry" />
        </mxCell>
        <mxCell id="MCTIEd8ayWj7sPqM-dVJ-153" value="" style="shape=cube;whiteSpace=wrap;html=1;boundedLbl=1;backgroundOutline=1;darkOpacity=0.05;darkOpacity2=0.1;size=10;rotation=90;" parent="MCTIEd8ayWj7sPqM-dVJ-110" vertex="1">
          <mxGeometry x="30" y="110" width="30" height="30" as="geometry" />
        </mxCell>
        <mxCell id="MCTIEd8ayWj7sPqM-dVJ-154" value="" style="shape=cube;whiteSpace=wrap;html=1;boundedLbl=1;backgroundOutline=1;darkOpacity=0.05;darkOpacity2=0.1;size=10;rotation=90;" parent="MCTIEd8ayWj7sPqM-dVJ-110" vertex="1">
          <mxGeometry x="30" y="90" width="30" height="30" as="geometry" />
        </mxCell>
        <mxCell id="MCTIEd8ayWj7sPqM-dVJ-155" value="" style="shape=cube;whiteSpace=wrap;html=1;boundedLbl=1;backgroundOutline=1;darkOpacity=0.05;darkOpacity2=0.1;size=10;rotation=90;" parent="MCTIEd8ayWj7sPqM-dVJ-110" vertex="1">
          <mxGeometry x="30" y="70" width="30" height="30" as="geometry" />
        </mxCell>
        <mxCell id="MCTIEd8ayWj7sPqM-dVJ-156" value="" style="shape=cube;whiteSpace=wrap;html=1;boundedLbl=1;backgroundOutline=1;darkOpacity=0.05;darkOpacity2=0.1;size=10;rotation=90;" parent="MCTIEd8ayWj7sPqM-dVJ-110" vertex="1">
          <mxGeometry x="30" y="50" width="30" height="30" as="geometry" />
        </mxCell>
        <mxCell id="MCTIEd8ayWj7sPqM-dVJ-157" value="" style="shape=cube;whiteSpace=wrap;html=1;boundedLbl=1;backgroundOutline=1;darkOpacity=0.05;darkOpacity2=0.1;size=10;rotation=90;" parent="MCTIEd8ayWj7sPqM-dVJ-110" vertex="1">
          <mxGeometry x="30" y="30" width="30" height="30" as="geometry" />
        </mxCell>
        <mxCell id="MCTIEd8ayWj7sPqM-dVJ-158" value="" style="shape=cube;whiteSpace=wrap;html=1;boundedLbl=1;backgroundOutline=1;darkOpacity=0.05;darkOpacity2=0.1;size=10;rotation=90;" parent="MCTIEd8ayWj7sPqM-dVJ-110" vertex="1">
          <mxGeometry x="30" y="10" width="30" height="30" as="geometry" />
        </mxCell>
        <mxCell id="MCTIEd8ayWj7sPqM-dVJ-159" value="" style="shape=cube;whiteSpace=wrap;html=1;boundedLbl=1;backgroundOutline=1;darkOpacity=0.05;darkOpacity2=0.1;size=10;rotation=90;" parent="MCTIEd8ayWj7sPqM-dVJ-110" vertex="1">
          <mxGeometry x="50" y="110" width="30" height="30" as="geometry" />
        </mxCell>
        <mxCell id="MCTIEd8ayWj7sPqM-dVJ-160" value="" style="shape=cube;whiteSpace=wrap;html=1;boundedLbl=1;backgroundOutline=1;darkOpacity=0.05;darkOpacity2=0.1;size=10;rotation=90;" parent="MCTIEd8ayWj7sPqM-dVJ-110" vertex="1">
          <mxGeometry x="50" y="90" width="30" height="30" as="geometry" />
        </mxCell>
        <mxCell id="MCTIEd8ayWj7sPqM-dVJ-161" value="" style="shape=cube;whiteSpace=wrap;html=1;boundedLbl=1;backgroundOutline=1;darkOpacity=0.05;darkOpacity2=0.1;size=10;rotation=90;" parent="MCTIEd8ayWj7sPqM-dVJ-110" vertex="1">
          <mxGeometry x="50" y="70" width="30" height="30" as="geometry" />
        </mxCell>
        <mxCell id="MCTIEd8ayWj7sPqM-dVJ-162" value="" style="shape=cube;whiteSpace=wrap;html=1;boundedLbl=1;backgroundOutline=1;darkOpacity=0.05;darkOpacity2=0.1;size=10;rotation=90;" parent="MCTIEd8ayWj7sPqM-dVJ-110" vertex="1">
          <mxGeometry x="50" y="50" width="30" height="30" as="geometry" />
        </mxCell>
        <mxCell id="MCTIEd8ayWj7sPqM-dVJ-163" value="" style="shape=cube;whiteSpace=wrap;html=1;boundedLbl=1;backgroundOutline=1;darkOpacity=0.05;darkOpacity2=0.1;size=10;rotation=90;" parent="MCTIEd8ayWj7sPqM-dVJ-110" vertex="1">
          <mxGeometry x="50" y="30" width="30" height="30" as="geometry" />
        </mxCell>
        <mxCell id="MCTIEd8ayWj7sPqM-dVJ-164" value="" style="shape=cube;whiteSpace=wrap;html=1;boundedLbl=1;backgroundOutline=1;darkOpacity=0.05;darkOpacity2=0.1;size=10;rotation=90;" parent="MCTIEd8ayWj7sPqM-dVJ-110" vertex="1">
          <mxGeometry x="50" y="10" width="30" height="30" as="geometry" />
        </mxCell>
        <mxCell id="MCTIEd8ayWj7sPqM-dVJ-165" value="" style="shape=cube;whiteSpace=wrap;html=1;boundedLbl=1;backgroundOutline=1;darkOpacity=0.05;darkOpacity2=0.1;size=10;rotation=90;" parent="MCTIEd8ayWj7sPqM-dVJ-110" vertex="1">
          <mxGeometry x="70" y="110" width="30" height="30" as="geometry" />
        </mxCell>
        <mxCell id="MCTIEd8ayWj7sPqM-dVJ-166" value="" style="shape=cube;whiteSpace=wrap;html=1;boundedLbl=1;backgroundOutline=1;darkOpacity=0.05;darkOpacity2=0.1;size=10;rotation=90;" parent="MCTIEd8ayWj7sPqM-dVJ-110" vertex="1">
          <mxGeometry x="70" y="90" width="30" height="30" as="geometry" />
        </mxCell>
        <mxCell id="MCTIEd8ayWj7sPqM-dVJ-167" value="" style="shape=cube;whiteSpace=wrap;html=1;boundedLbl=1;backgroundOutline=1;darkOpacity=0.05;darkOpacity2=0.1;size=10;rotation=90;" parent="MCTIEd8ayWj7sPqM-dVJ-110" vertex="1">
          <mxGeometry x="70" y="70" width="30" height="30" as="geometry" />
        </mxCell>
        <mxCell id="MCTIEd8ayWj7sPqM-dVJ-168" value="" style="shape=cube;whiteSpace=wrap;html=1;boundedLbl=1;backgroundOutline=1;darkOpacity=0.05;darkOpacity2=0.1;size=10;rotation=90;" parent="MCTIEd8ayWj7sPqM-dVJ-110" vertex="1">
          <mxGeometry x="70" y="50" width="30" height="30" as="geometry" />
        </mxCell>
        <mxCell id="MCTIEd8ayWj7sPqM-dVJ-169" value="" style="shape=cube;whiteSpace=wrap;html=1;boundedLbl=1;backgroundOutline=1;darkOpacity=0.05;darkOpacity2=0.1;size=10;rotation=90;" parent="MCTIEd8ayWj7sPqM-dVJ-110" vertex="1">
          <mxGeometry x="70" y="30" width="30" height="30" as="geometry" />
        </mxCell>
        <mxCell id="MCTIEd8ayWj7sPqM-dVJ-170" value="" style="shape=cube;whiteSpace=wrap;html=1;boundedLbl=1;backgroundOutline=1;darkOpacity=0.05;darkOpacity2=0.1;size=10;rotation=90;" parent="MCTIEd8ayWj7sPqM-dVJ-110" vertex="1">
          <mxGeometry x="70" y="10" width="30" height="30" as="geometry" />
        </mxCell>
        <mxCell id="MCTIEd8ayWj7sPqM-dVJ-171" value="" style="shape=cube;whiteSpace=wrap;html=1;boundedLbl=1;backgroundOutline=1;darkOpacity=0.05;darkOpacity2=0.1;size=10;rotation=90;" parent="MCTIEd8ayWj7sPqM-dVJ-110" vertex="1">
          <mxGeometry x="90" y="110" width="30" height="30" as="geometry" />
        </mxCell>
        <mxCell id="MCTIEd8ayWj7sPqM-dVJ-172" value="" style="shape=cube;whiteSpace=wrap;html=1;boundedLbl=1;backgroundOutline=1;darkOpacity=0.05;darkOpacity2=0.1;size=10;rotation=90;" parent="MCTIEd8ayWj7sPqM-dVJ-110" vertex="1">
          <mxGeometry x="90" y="90" width="30" height="30" as="geometry" />
        </mxCell>
        <mxCell id="MCTIEd8ayWj7sPqM-dVJ-173" value="" style="shape=cube;whiteSpace=wrap;html=1;boundedLbl=1;backgroundOutline=1;darkOpacity=0.05;darkOpacity2=0.1;size=10;rotation=90;" parent="MCTIEd8ayWj7sPqM-dVJ-110" vertex="1">
          <mxGeometry x="90" y="70" width="30" height="30" as="geometry" />
        </mxCell>
        <mxCell id="MCTIEd8ayWj7sPqM-dVJ-174" value="" style="shape=cube;whiteSpace=wrap;html=1;boundedLbl=1;backgroundOutline=1;darkOpacity=0.05;darkOpacity2=0.1;size=10;rotation=90;" parent="MCTIEd8ayWj7sPqM-dVJ-110" vertex="1">
          <mxGeometry x="90" y="50" width="30" height="30" as="geometry" />
        </mxCell>
        <mxCell id="MCTIEd8ayWj7sPqM-dVJ-175" value="" style="shape=cube;whiteSpace=wrap;html=1;boundedLbl=1;backgroundOutline=1;darkOpacity=0.05;darkOpacity2=0.1;size=10;rotation=90;" parent="MCTIEd8ayWj7sPqM-dVJ-110" vertex="1">
          <mxGeometry x="90" y="30" width="30" height="30" as="geometry" />
        </mxCell>
        <mxCell id="MCTIEd8ayWj7sPqM-dVJ-176" value="" style="shape=cube;whiteSpace=wrap;html=1;boundedLbl=1;backgroundOutline=1;darkOpacity=0.05;darkOpacity2=0.1;size=10;rotation=90;" parent="MCTIEd8ayWj7sPqM-dVJ-110" vertex="1">
          <mxGeometry x="90" y="10" width="30" height="30" as="geometry" />
        </mxCell>
        <mxCell id="MCTIEd8ayWj7sPqM-dVJ-177" value="" style="shape=cube;whiteSpace=wrap;html=1;boundedLbl=1;backgroundOutline=1;darkOpacity=0.05;darkOpacity2=0.1;size=10;rotation=90;" parent="MCTIEd8ayWj7sPqM-dVJ-110" vertex="1">
          <mxGeometry x="110" y="110" width="30" height="30" as="geometry" />
        </mxCell>
        <mxCell id="MCTIEd8ayWj7sPqM-dVJ-178" value="" style="shape=cube;whiteSpace=wrap;html=1;boundedLbl=1;backgroundOutline=1;darkOpacity=0.05;darkOpacity2=0.1;size=10;rotation=90;" parent="MCTIEd8ayWj7sPqM-dVJ-110" vertex="1">
          <mxGeometry x="110" y="90" width="30" height="30" as="geometry" />
        </mxCell>
        <mxCell id="MCTIEd8ayWj7sPqM-dVJ-179" value="" style="shape=cube;whiteSpace=wrap;html=1;boundedLbl=1;backgroundOutline=1;darkOpacity=0.05;darkOpacity2=0.1;size=10;rotation=90;" parent="MCTIEd8ayWj7sPqM-dVJ-110" vertex="1">
          <mxGeometry x="110" y="70" width="30" height="30" as="geometry" />
        </mxCell>
        <mxCell id="MCTIEd8ayWj7sPqM-dVJ-180" value="" style="shape=cube;whiteSpace=wrap;html=1;boundedLbl=1;backgroundOutline=1;darkOpacity=0.05;darkOpacity2=0.1;size=10;rotation=90;" parent="MCTIEd8ayWj7sPqM-dVJ-110" vertex="1">
          <mxGeometry x="110" y="50" width="30" height="30" as="geometry" />
        </mxCell>
        <mxCell id="MCTIEd8ayWj7sPqM-dVJ-181" value="" style="shape=cube;whiteSpace=wrap;html=1;boundedLbl=1;backgroundOutline=1;darkOpacity=0.05;darkOpacity2=0.1;size=10;rotation=90;" parent="MCTIEd8ayWj7sPqM-dVJ-110" vertex="1">
          <mxGeometry x="110" y="30" width="30" height="30" as="geometry" />
        </mxCell>
        <mxCell id="MCTIEd8ayWj7sPqM-dVJ-182" value="" style="shape=cube;whiteSpace=wrap;html=1;boundedLbl=1;backgroundOutline=1;darkOpacity=0.05;darkOpacity2=0.1;size=10;rotation=90;" parent="MCTIEd8ayWj7sPqM-dVJ-110" vertex="1">
          <mxGeometry x="110" y="10" width="30" height="30" as="geometry" />
        </mxCell>
        <mxCell id="MCTIEd8ayWj7sPqM-dVJ-183" value="" style="shape=cube;whiteSpace=wrap;html=1;boundedLbl=1;backgroundOutline=1;darkOpacity=0.05;darkOpacity2=0.1;size=10;rotation=90;" parent="MCTIEd8ayWj7sPqM-dVJ-110" vertex="1">
          <mxGeometry y="120" width="30" height="30" as="geometry" />
        </mxCell>
        <mxCell id="MCTIEd8ayWj7sPqM-dVJ-184" value="" style="shape=cube;whiteSpace=wrap;html=1;boundedLbl=1;backgroundOutline=1;darkOpacity=0.05;darkOpacity2=0.1;size=10;rotation=90;" parent="MCTIEd8ayWj7sPqM-dVJ-110" vertex="1">
          <mxGeometry y="100" width="30" height="30" as="geometry" />
        </mxCell>
        <mxCell id="MCTIEd8ayWj7sPqM-dVJ-185" value="" style="shape=cube;whiteSpace=wrap;html=1;boundedLbl=1;backgroundOutline=1;darkOpacity=0.05;darkOpacity2=0.1;size=10;rotation=90;" parent="MCTIEd8ayWj7sPqM-dVJ-110" vertex="1">
          <mxGeometry y="80" width="30" height="30" as="geometry" />
        </mxCell>
        <mxCell id="MCTIEd8ayWj7sPqM-dVJ-186" value="" style="shape=cube;whiteSpace=wrap;html=1;boundedLbl=1;backgroundOutline=1;darkOpacity=0.05;darkOpacity2=0.1;size=10;rotation=90;" parent="MCTIEd8ayWj7sPqM-dVJ-110" vertex="1">
          <mxGeometry y="60" width="30" height="30" as="geometry" />
        </mxCell>
        <mxCell id="MCTIEd8ayWj7sPqM-dVJ-187" value="" style="shape=cube;whiteSpace=wrap;html=1;boundedLbl=1;backgroundOutline=1;darkOpacity=0.05;darkOpacity2=0.1;size=10;rotation=90;" parent="MCTIEd8ayWj7sPqM-dVJ-110" vertex="1">
          <mxGeometry y="40" width="30" height="30" as="geometry" />
        </mxCell>
        <mxCell id="MCTIEd8ayWj7sPqM-dVJ-188" value="" style="shape=cube;whiteSpace=wrap;html=1;boundedLbl=1;backgroundOutline=1;darkOpacity=0.05;darkOpacity2=0.1;size=10;rotation=90;" parent="MCTIEd8ayWj7sPqM-dVJ-110" vertex="1">
          <mxGeometry y="20" width="30" height="30" as="geometry" />
        </mxCell>
        <mxCell id="MCTIEd8ayWj7sPqM-dVJ-189" value="" style="shape=cube;whiteSpace=wrap;html=1;boundedLbl=1;backgroundOutline=1;darkOpacity=0.05;darkOpacity2=0.1;size=10;rotation=90;" parent="MCTIEd8ayWj7sPqM-dVJ-110" vertex="1">
          <mxGeometry x="20" y="120" width="30" height="30" as="geometry" />
        </mxCell>
        <mxCell id="MCTIEd8ayWj7sPqM-dVJ-190" value="" style="shape=cube;whiteSpace=wrap;html=1;boundedLbl=1;backgroundOutline=1;darkOpacity=0.05;darkOpacity2=0.1;size=10;rotation=90;" parent="MCTIEd8ayWj7sPqM-dVJ-110" vertex="1">
          <mxGeometry x="20" y="100" width="30" height="30" as="geometry" />
        </mxCell>
        <mxCell id="MCTIEd8ayWj7sPqM-dVJ-191" value="" style="shape=cube;whiteSpace=wrap;html=1;boundedLbl=1;backgroundOutline=1;darkOpacity=0.05;darkOpacity2=0.1;size=10;rotation=90;" parent="MCTIEd8ayWj7sPqM-dVJ-110" vertex="1">
          <mxGeometry x="20" y="80" width="30" height="30" as="geometry" />
        </mxCell>
        <mxCell id="MCTIEd8ayWj7sPqM-dVJ-192" value="" style="shape=cube;whiteSpace=wrap;html=1;boundedLbl=1;backgroundOutline=1;darkOpacity=0.05;darkOpacity2=0.1;size=10;rotation=90;" parent="MCTIEd8ayWj7sPqM-dVJ-110" vertex="1">
          <mxGeometry x="20" y="60" width="30" height="30" as="geometry" />
        </mxCell>
        <mxCell id="MCTIEd8ayWj7sPqM-dVJ-193" value="" style="shape=cube;whiteSpace=wrap;html=1;boundedLbl=1;backgroundOutline=1;darkOpacity=0.05;darkOpacity2=0.1;size=10;rotation=90;" parent="MCTIEd8ayWj7sPqM-dVJ-110" vertex="1">
          <mxGeometry x="20" y="40" width="30" height="30" as="geometry" />
        </mxCell>
        <mxCell id="MCTIEd8ayWj7sPqM-dVJ-194" value="" style="shape=cube;whiteSpace=wrap;html=1;boundedLbl=1;backgroundOutline=1;darkOpacity=0.05;darkOpacity2=0.1;size=10;rotation=90;" parent="MCTIEd8ayWj7sPqM-dVJ-110" vertex="1">
          <mxGeometry x="20" y="20" width="30" height="30" as="geometry" />
        </mxCell>
        <mxCell id="MCTIEd8ayWj7sPqM-dVJ-195" value="" style="shape=cube;whiteSpace=wrap;html=1;boundedLbl=1;backgroundOutline=1;darkOpacity=0.05;darkOpacity2=0.1;size=10;rotation=90;" parent="MCTIEd8ayWj7sPqM-dVJ-110" vertex="1">
          <mxGeometry x="40" y="120" width="30" height="30" as="geometry" />
        </mxCell>
        <mxCell id="MCTIEd8ayWj7sPqM-dVJ-196" value="" style="shape=cube;whiteSpace=wrap;html=1;boundedLbl=1;backgroundOutline=1;darkOpacity=0.05;darkOpacity2=0.1;size=10;rotation=90;" parent="MCTIEd8ayWj7sPqM-dVJ-110" vertex="1">
          <mxGeometry x="40" y="100" width="30" height="30" as="geometry" />
        </mxCell>
        <mxCell id="MCTIEd8ayWj7sPqM-dVJ-197" value="" style="shape=cube;whiteSpace=wrap;html=1;boundedLbl=1;backgroundOutline=1;darkOpacity=0.05;darkOpacity2=0.1;size=10;rotation=90;" parent="MCTIEd8ayWj7sPqM-dVJ-110" vertex="1">
          <mxGeometry x="40" y="80" width="30" height="30" as="geometry" />
        </mxCell>
        <mxCell id="MCTIEd8ayWj7sPqM-dVJ-198" value="" style="shape=cube;whiteSpace=wrap;html=1;boundedLbl=1;backgroundOutline=1;darkOpacity=0.05;darkOpacity2=0.1;size=10;rotation=90;" parent="MCTIEd8ayWj7sPqM-dVJ-110" vertex="1">
          <mxGeometry x="40" y="60" width="30" height="30" as="geometry" />
        </mxCell>
        <mxCell id="MCTIEd8ayWj7sPqM-dVJ-199" value="" style="shape=cube;whiteSpace=wrap;html=1;boundedLbl=1;backgroundOutline=1;darkOpacity=0.05;darkOpacity2=0.1;size=10;rotation=90;" parent="MCTIEd8ayWj7sPqM-dVJ-110" vertex="1">
          <mxGeometry x="40" y="40" width="30" height="30" as="geometry" />
        </mxCell>
        <mxCell id="MCTIEd8ayWj7sPqM-dVJ-200" value="" style="shape=cube;whiteSpace=wrap;html=1;boundedLbl=1;backgroundOutline=1;darkOpacity=0.05;darkOpacity2=0.1;size=10;rotation=90;" parent="MCTIEd8ayWj7sPqM-dVJ-110" vertex="1">
          <mxGeometry x="40" y="20" width="30" height="30" as="geometry" />
        </mxCell>
        <mxCell id="MCTIEd8ayWj7sPqM-dVJ-201" value="" style="shape=cube;whiteSpace=wrap;html=1;boundedLbl=1;backgroundOutline=1;darkOpacity=0.05;darkOpacity2=0.1;size=10;rotation=90;" parent="MCTIEd8ayWj7sPqM-dVJ-110" vertex="1">
          <mxGeometry x="60" y="120" width="30" height="30" as="geometry" />
        </mxCell>
        <mxCell id="MCTIEd8ayWj7sPqM-dVJ-202" value="" style="shape=cube;whiteSpace=wrap;html=1;boundedLbl=1;backgroundOutline=1;darkOpacity=0.05;darkOpacity2=0.1;size=10;rotation=90;" parent="MCTIEd8ayWj7sPqM-dVJ-110" vertex="1">
          <mxGeometry x="60" y="100" width="30" height="30" as="geometry" />
        </mxCell>
        <mxCell id="MCTIEd8ayWj7sPqM-dVJ-203" value="" style="shape=cube;whiteSpace=wrap;html=1;boundedLbl=1;backgroundOutline=1;darkOpacity=0.05;darkOpacity2=0.1;size=10;rotation=90;" parent="MCTIEd8ayWj7sPqM-dVJ-110" vertex="1">
          <mxGeometry x="60" y="80" width="30" height="30" as="geometry" />
        </mxCell>
        <mxCell id="MCTIEd8ayWj7sPqM-dVJ-204" value="" style="shape=cube;whiteSpace=wrap;html=1;boundedLbl=1;backgroundOutline=1;darkOpacity=0.05;darkOpacity2=0.1;size=10;rotation=90;" parent="MCTIEd8ayWj7sPqM-dVJ-110" vertex="1">
          <mxGeometry x="60" y="60" width="30" height="30" as="geometry" />
        </mxCell>
        <mxCell id="MCTIEd8ayWj7sPqM-dVJ-205" value="" style="shape=cube;whiteSpace=wrap;html=1;boundedLbl=1;backgroundOutline=1;darkOpacity=0.05;darkOpacity2=0.1;size=10;rotation=90;" parent="MCTIEd8ayWj7sPqM-dVJ-110" vertex="1">
          <mxGeometry x="60" y="40" width="30" height="30" as="geometry" />
        </mxCell>
        <mxCell id="MCTIEd8ayWj7sPqM-dVJ-206" value="" style="shape=cube;whiteSpace=wrap;html=1;boundedLbl=1;backgroundOutline=1;darkOpacity=0.05;darkOpacity2=0.1;size=10;rotation=90;" parent="MCTIEd8ayWj7sPqM-dVJ-110" vertex="1">
          <mxGeometry x="60" y="20" width="30" height="30" as="geometry" />
        </mxCell>
        <mxCell id="MCTIEd8ayWj7sPqM-dVJ-207" value="" style="shape=cube;whiteSpace=wrap;html=1;boundedLbl=1;backgroundOutline=1;darkOpacity=0.05;darkOpacity2=0.1;size=10;rotation=90;" parent="MCTIEd8ayWj7sPqM-dVJ-110" vertex="1">
          <mxGeometry x="80" y="120" width="30" height="30" as="geometry" />
        </mxCell>
        <mxCell id="MCTIEd8ayWj7sPqM-dVJ-208" value="" style="shape=cube;whiteSpace=wrap;html=1;boundedLbl=1;backgroundOutline=1;darkOpacity=0.05;darkOpacity2=0.1;size=10;rotation=90;" parent="MCTIEd8ayWj7sPqM-dVJ-110" vertex="1">
          <mxGeometry x="80" y="100" width="30" height="30" as="geometry" />
        </mxCell>
        <mxCell id="MCTIEd8ayWj7sPqM-dVJ-209" value="" style="shape=cube;whiteSpace=wrap;html=1;boundedLbl=1;backgroundOutline=1;darkOpacity=0.05;darkOpacity2=0.1;size=10;rotation=90;" parent="MCTIEd8ayWj7sPqM-dVJ-110" vertex="1">
          <mxGeometry x="80" y="80" width="30" height="30" as="geometry" />
        </mxCell>
        <mxCell id="MCTIEd8ayWj7sPqM-dVJ-210" value="" style="shape=cube;whiteSpace=wrap;html=1;boundedLbl=1;backgroundOutline=1;darkOpacity=0.05;darkOpacity2=0.1;size=10;rotation=90;" parent="MCTIEd8ayWj7sPqM-dVJ-110" vertex="1">
          <mxGeometry x="80" y="60" width="30" height="30" as="geometry" />
        </mxCell>
        <mxCell id="MCTIEd8ayWj7sPqM-dVJ-211" value="" style="shape=cube;whiteSpace=wrap;html=1;boundedLbl=1;backgroundOutline=1;darkOpacity=0.05;darkOpacity2=0.1;size=10;rotation=90;" parent="MCTIEd8ayWj7sPqM-dVJ-110" vertex="1">
          <mxGeometry x="80" y="40" width="30" height="30" as="geometry" />
        </mxCell>
        <mxCell id="MCTIEd8ayWj7sPqM-dVJ-212" value="" style="shape=cube;whiteSpace=wrap;html=1;boundedLbl=1;backgroundOutline=1;darkOpacity=0.05;darkOpacity2=0.1;size=10;rotation=90;" parent="MCTIEd8ayWj7sPqM-dVJ-110" vertex="1">
          <mxGeometry x="80" y="20" width="30" height="30" as="geometry" />
        </mxCell>
        <mxCell id="MCTIEd8ayWj7sPqM-dVJ-213" value="" style="shape=cube;whiteSpace=wrap;html=1;boundedLbl=1;backgroundOutline=1;darkOpacity=0.05;darkOpacity2=0.1;size=10;rotation=90;" parent="MCTIEd8ayWj7sPqM-dVJ-110" vertex="1">
          <mxGeometry x="100" y="120" width="30" height="30" as="geometry" />
        </mxCell>
        <mxCell id="MCTIEd8ayWj7sPqM-dVJ-214" value="" style="shape=cube;whiteSpace=wrap;html=1;boundedLbl=1;backgroundOutline=1;darkOpacity=0.05;darkOpacity2=0.1;size=10;rotation=90;" parent="MCTIEd8ayWj7sPqM-dVJ-110" vertex="1">
          <mxGeometry x="100" y="100" width="30" height="30" as="geometry" />
        </mxCell>
        <mxCell id="MCTIEd8ayWj7sPqM-dVJ-215" value="" style="shape=cube;whiteSpace=wrap;html=1;boundedLbl=1;backgroundOutline=1;darkOpacity=0.05;darkOpacity2=0.1;size=10;rotation=90;" parent="MCTIEd8ayWj7sPqM-dVJ-110" vertex="1">
          <mxGeometry x="100" y="80" width="30" height="30" as="geometry" />
        </mxCell>
        <mxCell id="MCTIEd8ayWj7sPqM-dVJ-216" value="" style="shape=cube;whiteSpace=wrap;html=1;boundedLbl=1;backgroundOutline=1;darkOpacity=0.05;darkOpacity2=0.1;size=10;rotation=90;" parent="MCTIEd8ayWj7sPqM-dVJ-110" vertex="1">
          <mxGeometry x="100" y="60" width="30" height="30" as="geometry" />
        </mxCell>
        <mxCell id="MCTIEd8ayWj7sPqM-dVJ-217" value="" style="shape=cube;whiteSpace=wrap;html=1;boundedLbl=1;backgroundOutline=1;darkOpacity=0.05;darkOpacity2=0.1;size=10;rotation=90;" parent="MCTIEd8ayWj7sPqM-dVJ-110" vertex="1">
          <mxGeometry x="100" y="40" width="30" height="30" as="geometry" />
        </mxCell>
        <mxCell id="MCTIEd8ayWj7sPqM-dVJ-218" value="" style="shape=cube;whiteSpace=wrap;html=1;boundedLbl=1;backgroundOutline=1;darkOpacity=0.05;darkOpacity2=0.1;size=10;rotation=90;" parent="MCTIEd8ayWj7sPqM-dVJ-110" vertex="1">
          <mxGeometry x="100" y="20" width="30" height="30" as="geometry" />
        </mxCell>
        <mxCell id="MCTIEd8ayWj7sPqM-dVJ-219" value="" style="group" parent="1" vertex="1" connectable="0">
          <mxGeometry x="540" y="90" width="150" height="150" as="geometry" />
        </mxCell>
        <mxCell id="MCTIEd8ayWj7sPqM-dVJ-220" value="" style="shape=cube;whiteSpace=wrap;html=1;boundedLbl=1;backgroundOutline=1;darkOpacity=0.05;darkOpacity2=0.1;size=10;rotation=90;" parent="MCTIEd8ayWj7sPqM-dVJ-219" vertex="1">
          <mxGeometry x="20" y="100" width="30" height="30" as="geometry" />
        </mxCell>
        <mxCell id="MCTIEd8ayWj7sPqM-dVJ-221" value="" style="shape=cube;whiteSpace=wrap;html=1;boundedLbl=1;backgroundOutline=1;darkOpacity=0.05;darkOpacity2=0.1;size=10;rotation=90;" parent="MCTIEd8ayWj7sPqM-dVJ-219" vertex="1">
          <mxGeometry x="20" y="80" width="30" height="30" as="geometry" />
        </mxCell>
        <mxCell id="MCTIEd8ayWj7sPqM-dVJ-222" value="" style="shape=cube;whiteSpace=wrap;html=1;boundedLbl=1;backgroundOutline=1;darkOpacity=0.05;darkOpacity2=0.1;size=10;rotation=90;" parent="MCTIEd8ayWj7sPqM-dVJ-219" vertex="1">
          <mxGeometry x="20" y="60" width="30" height="30" as="geometry" />
        </mxCell>
        <mxCell id="MCTIEd8ayWj7sPqM-dVJ-223" value="" style="shape=cube;whiteSpace=wrap;html=1;boundedLbl=1;backgroundOutline=1;darkOpacity=0.05;darkOpacity2=0.1;size=10;rotation=90;" parent="MCTIEd8ayWj7sPqM-dVJ-219" vertex="1">
          <mxGeometry x="20" y="40" width="30" height="30" as="geometry" />
        </mxCell>
        <mxCell id="MCTIEd8ayWj7sPqM-dVJ-224" value="" style="shape=cube;whiteSpace=wrap;html=1;boundedLbl=1;backgroundOutline=1;darkOpacity=0.05;darkOpacity2=0.1;size=10;rotation=90;" parent="MCTIEd8ayWj7sPqM-dVJ-219" vertex="1">
          <mxGeometry x="20" y="20" width="30" height="30" as="geometry" />
        </mxCell>
        <mxCell id="MCTIEd8ayWj7sPqM-dVJ-225" value="" style="shape=cube;whiteSpace=wrap;html=1;boundedLbl=1;backgroundOutline=1;darkOpacity=0.05;darkOpacity2=0.1;size=10;rotation=90;" parent="MCTIEd8ayWj7sPqM-dVJ-219" vertex="1">
          <mxGeometry x="20" width="30" height="30" as="geometry" />
        </mxCell>
        <mxCell id="MCTIEd8ayWj7sPqM-dVJ-226" value="" style="shape=cube;whiteSpace=wrap;html=1;boundedLbl=1;backgroundOutline=1;darkOpacity=0.05;darkOpacity2=0.1;size=10;rotation=90;" parent="MCTIEd8ayWj7sPqM-dVJ-219" vertex="1">
          <mxGeometry x="40" y="100" width="30" height="30" as="geometry" />
        </mxCell>
        <mxCell id="MCTIEd8ayWj7sPqM-dVJ-227" value="" style="shape=cube;whiteSpace=wrap;html=1;boundedLbl=1;backgroundOutline=1;darkOpacity=0.05;darkOpacity2=0.1;size=10;rotation=90;" parent="MCTIEd8ayWj7sPqM-dVJ-219" vertex="1">
          <mxGeometry x="40" y="80" width="30" height="30" as="geometry" />
        </mxCell>
        <mxCell id="MCTIEd8ayWj7sPqM-dVJ-228" value="" style="shape=cube;whiteSpace=wrap;html=1;boundedLbl=1;backgroundOutline=1;darkOpacity=0.05;darkOpacity2=0.1;size=10;rotation=90;" parent="MCTIEd8ayWj7sPqM-dVJ-219" vertex="1">
          <mxGeometry x="40" y="60" width="30" height="30" as="geometry" />
        </mxCell>
        <mxCell id="MCTIEd8ayWj7sPqM-dVJ-229" value="" style="shape=cube;whiteSpace=wrap;html=1;boundedLbl=1;backgroundOutline=1;darkOpacity=0.05;darkOpacity2=0.1;size=10;rotation=90;" parent="MCTIEd8ayWj7sPqM-dVJ-219" vertex="1">
          <mxGeometry x="40" y="40" width="30" height="30" as="geometry" />
        </mxCell>
        <mxCell id="MCTIEd8ayWj7sPqM-dVJ-230" value="" style="shape=cube;whiteSpace=wrap;html=1;boundedLbl=1;backgroundOutline=1;darkOpacity=0.05;darkOpacity2=0.1;size=10;rotation=90;" parent="MCTIEd8ayWj7sPqM-dVJ-219" vertex="1">
          <mxGeometry x="40" y="20" width="30" height="30" as="geometry" />
        </mxCell>
        <mxCell id="MCTIEd8ayWj7sPqM-dVJ-231" value="" style="shape=cube;whiteSpace=wrap;html=1;boundedLbl=1;backgroundOutline=1;darkOpacity=0.05;darkOpacity2=0.1;size=10;rotation=90;" parent="MCTIEd8ayWj7sPqM-dVJ-219" vertex="1">
          <mxGeometry x="40" width="30" height="30" as="geometry" />
        </mxCell>
        <mxCell id="MCTIEd8ayWj7sPqM-dVJ-232" value="" style="shape=cube;whiteSpace=wrap;html=1;boundedLbl=1;backgroundOutline=1;darkOpacity=0.05;darkOpacity2=0.1;size=10;rotation=90;" parent="MCTIEd8ayWj7sPqM-dVJ-219" vertex="1">
          <mxGeometry x="60" y="100" width="30" height="30" as="geometry" />
        </mxCell>
        <mxCell id="MCTIEd8ayWj7sPqM-dVJ-233" value="" style="shape=cube;whiteSpace=wrap;html=1;boundedLbl=1;backgroundOutline=1;darkOpacity=0.05;darkOpacity2=0.1;size=10;rotation=90;" parent="MCTIEd8ayWj7sPqM-dVJ-219" vertex="1">
          <mxGeometry x="60" y="80" width="30" height="30" as="geometry" />
        </mxCell>
        <mxCell id="MCTIEd8ayWj7sPqM-dVJ-234" value="" style="shape=cube;whiteSpace=wrap;html=1;boundedLbl=1;backgroundOutline=1;darkOpacity=0.05;darkOpacity2=0.1;size=10;rotation=90;" parent="MCTIEd8ayWj7sPqM-dVJ-219" vertex="1">
          <mxGeometry x="60" y="60" width="30" height="30" as="geometry" />
        </mxCell>
        <mxCell id="MCTIEd8ayWj7sPqM-dVJ-235" value="" style="shape=cube;whiteSpace=wrap;html=1;boundedLbl=1;backgroundOutline=1;darkOpacity=0.05;darkOpacity2=0.1;size=10;rotation=90;" parent="MCTIEd8ayWj7sPqM-dVJ-219" vertex="1">
          <mxGeometry x="60" y="40" width="30" height="30" as="geometry" />
        </mxCell>
        <mxCell id="MCTIEd8ayWj7sPqM-dVJ-236" value="" style="shape=cube;whiteSpace=wrap;html=1;boundedLbl=1;backgroundOutline=1;darkOpacity=0.05;darkOpacity2=0.1;size=10;rotation=90;" parent="MCTIEd8ayWj7sPqM-dVJ-219" vertex="1">
          <mxGeometry x="60" y="20" width="30" height="30" as="geometry" />
        </mxCell>
        <mxCell id="MCTIEd8ayWj7sPqM-dVJ-237" value="" style="shape=cube;whiteSpace=wrap;html=1;boundedLbl=1;backgroundOutline=1;darkOpacity=0.05;darkOpacity2=0.1;size=10;rotation=90;" parent="MCTIEd8ayWj7sPqM-dVJ-219" vertex="1">
          <mxGeometry x="60" width="30" height="30" as="geometry" />
        </mxCell>
        <mxCell id="MCTIEd8ayWj7sPqM-dVJ-238" value="" style="shape=cube;whiteSpace=wrap;html=1;boundedLbl=1;backgroundOutline=1;darkOpacity=0.05;darkOpacity2=0.1;size=10;rotation=90;" parent="MCTIEd8ayWj7sPqM-dVJ-219" vertex="1">
          <mxGeometry x="80" y="100" width="30" height="30" as="geometry" />
        </mxCell>
        <mxCell id="MCTIEd8ayWj7sPqM-dVJ-239" value="" style="shape=cube;whiteSpace=wrap;html=1;boundedLbl=1;backgroundOutline=1;darkOpacity=0.05;darkOpacity2=0.1;size=10;rotation=90;" parent="MCTIEd8ayWj7sPqM-dVJ-219" vertex="1">
          <mxGeometry x="80" y="80" width="30" height="30" as="geometry" />
        </mxCell>
        <mxCell id="MCTIEd8ayWj7sPqM-dVJ-240" value="" style="shape=cube;whiteSpace=wrap;html=1;boundedLbl=1;backgroundOutline=1;darkOpacity=0.05;darkOpacity2=0.1;size=10;rotation=90;" parent="MCTIEd8ayWj7sPqM-dVJ-219" vertex="1">
          <mxGeometry x="80" y="60" width="30" height="30" as="geometry" />
        </mxCell>
        <mxCell id="MCTIEd8ayWj7sPqM-dVJ-241" value="" style="shape=cube;whiteSpace=wrap;html=1;boundedLbl=1;backgroundOutline=1;darkOpacity=0.05;darkOpacity2=0.1;size=10;rotation=90;" parent="MCTIEd8ayWj7sPqM-dVJ-219" vertex="1">
          <mxGeometry x="80" y="40" width="30" height="30" as="geometry" />
        </mxCell>
        <mxCell id="MCTIEd8ayWj7sPqM-dVJ-242" value="" style="shape=cube;whiteSpace=wrap;html=1;boundedLbl=1;backgroundOutline=1;darkOpacity=0.05;darkOpacity2=0.1;size=10;rotation=90;" parent="MCTIEd8ayWj7sPqM-dVJ-219" vertex="1">
          <mxGeometry x="80" y="20" width="30" height="30" as="geometry" />
        </mxCell>
        <mxCell id="MCTIEd8ayWj7sPqM-dVJ-243" value="" style="shape=cube;whiteSpace=wrap;html=1;boundedLbl=1;backgroundOutline=1;darkOpacity=0.05;darkOpacity2=0.1;size=10;rotation=90;" parent="MCTIEd8ayWj7sPqM-dVJ-219" vertex="1">
          <mxGeometry x="80" width="30" height="30" as="geometry" />
        </mxCell>
        <mxCell id="MCTIEd8ayWj7sPqM-dVJ-244" value="" style="shape=cube;whiteSpace=wrap;html=1;boundedLbl=1;backgroundOutline=1;darkOpacity=0.05;darkOpacity2=0.1;size=10;rotation=90;" parent="MCTIEd8ayWj7sPqM-dVJ-219" vertex="1">
          <mxGeometry x="100" y="100" width="30" height="30" as="geometry" />
        </mxCell>
        <mxCell id="MCTIEd8ayWj7sPqM-dVJ-245" value="" style="shape=cube;whiteSpace=wrap;html=1;boundedLbl=1;backgroundOutline=1;darkOpacity=0.05;darkOpacity2=0.1;size=10;rotation=90;" parent="MCTIEd8ayWj7sPqM-dVJ-219" vertex="1">
          <mxGeometry x="100" y="80" width="30" height="30" as="geometry" />
        </mxCell>
        <mxCell id="MCTIEd8ayWj7sPqM-dVJ-246" value="" style="shape=cube;whiteSpace=wrap;html=1;boundedLbl=1;backgroundOutline=1;darkOpacity=0.05;darkOpacity2=0.1;size=10;rotation=90;" parent="MCTIEd8ayWj7sPqM-dVJ-219" vertex="1">
          <mxGeometry x="100" y="60" width="30" height="30" as="geometry" />
        </mxCell>
        <mxCell id="MCTIEd8ayWj7sPqM-dVJ-247" value="" style="shape=cube;whiteSpace=wrap;html=1;boundedLbl=1;backgroundOutline=1;darkOpacity=0.05;darkOpacity2=0.1;size=10;rotation=90;" parent="MCTIEd8ayWj7sPqM-dVJ-219" vertex="1">
          <mxGeometry x="100" y="40" width="30" height="30" as="geometry" />
        </mxCell>
        <mxCell id="MCTIEd8ayWj7sPqM-dVJ-248" value="" style="shape=cube;whiteSpace=wrap;html=1;boundedLbl=1;backgroundOutline=1;darkOpacity=0.05;darkOpacity2=0.1;size=10;rotation=90;" parent="MCTIEd8ayWj7sPqM-dVJ-219" vertex="1">
          <mxGeometry x="100" y="20" width="30" height="30" as="geometry" />
        </mxCell>
        <mxCell id="MCTIEd8ayWj7sPqM-dVJ-249" value="" style="shape=cube;whiteSpace=wrap;html=1;boundedLbl=1;backgroundOutline=1;darkOpacity=0.05;darkOpacity2=0.1;size=10;rotation=90;" parent="MCTIEd8ayWj7sPqM-dVJ-219" vertex="1">
          <mxGeometry x="100" width="30" height="30" as="geometry" />
        </mxCell>
        <mxCell id="MCTIEd8ayWj7sPqM-dVJ-250" value="" style="shape=cube;whiteSpace=wrap;html=1;boundedLbl=1;backgroundOutline=1;darkOpacity=0.05;darkOpacity2=0.1;size=10;rotation=90;" parent="MCTIEd8ayWj7sPqM-dVJ-219" vertex="1">
          <mxGeometry x="120" y="100" width="30" height="30" as="geometry" />
        </mxCell>
        <mxCell id="MCTIEd8ayWj7sPqM-dVJ-251" value="" style="shape=cube;whiteSpace=wrap;html=1;boundedLbl=1;backgroundOutline=1;darkOpacity=0.05;darkOpacity2=0.1;size=10;rotation=90;" parent="MCTIEd8ayWj7sPqM-dVJ-219" vertex="1">
          <mxGeometry x="120" y="80" width="30" height="30" as="geometry" />
        </mxCell>
        <mxCell id="MCTIEd8ayWj7sPqM-dVJ-252" value="" style="shape=cube;whiteSpace=wrap;html=1;boundedLbl=1;backgroundOutline=1;darkOpacity=0.05;darkOpacity2=0.1;size=10;rotation=90;" parent="MCTIEd8ayWj7sPqM-dVJ-219" vertex="1">
          <mxGeometry x="120" y="60" width="30" height="30" as="geometry" />
        </mxCell>
        <mxCell id="MCTIEd8ayWj7sPqM-dVJ-253" value="" style="shape=cube;whiteSpace=wrap;html=1;boundedLbl=1;backgroundOutline=1;darkOpacity=0.05;darkOpacity2=0.1;size=10;rotation=90;" parent="MCTIEd8ayWj7sPqM-dVJ-219" vertex="1">
          <mxGeometry x="120" y="40" width="30" height="30" as="geometry" />
        </mxCell>
        <mxCell id="MCTIEd8ayWj7sPqM-dVJ-254" value="" style="shape=cube;whiteSpace=wrap;html=1;boundedLbl=1;backgroundOutline=1;darkOpacity=0.05;darkOpacity2=0.1;size=10;rotation=90;" parent="MCTIEd8ayWj7sPqM-dVJ-219" vertex="1">
          <mxGeometry x="120" y="20" width="30" height="30" as="geometry" />
        </mxCell>
        <mxCell id="MCTIEd8ayWj7sPqM-dVJ-255" value="" style="shape=cube;whiteSpace=wrap;html=1;boundedLbl=1;backgroundOutline=1;darkOpacity=0.05;darkOpacity2=0.1;size=10;rotation=90;" parent="MCTIEd8ayWj7sPqM-dVJ-219" vertex="1">
          <mxGeometry x="120" width="30" height="30" as="geometry" />
        </mxCell>
        <mxCell id="MCTIEd8ayWj7sPqM-dVJ-256" value="" style="shape=cube;whiteSpace=wrap;html=1;boundedLbl=1;backgroundOutline=1;darkOpacity=0.05;darkOpacity2=0.1;size=10;rotation=90;" parent="MCTIEd8ayWj7sPqM-dVJ-219" vertex="1">
          <mxGeometry x="10" y="110" width="30" height="30" as="geometry" />
        </mxCell>
        <mxCell id="MCTIEd8ayWj7sPqM-dVJ-257" value="" style="shape=cube;whiteSpace=wrap;html=1;boundedLbl=1;backgroundOutline=1;darkOpacity=0.05;darkOpacity2=0.1;size=10;rotation=90;" parent="MCTIEd8ayWj7sPqM-dVJ-219" vertex="1">
          <mxGeometry x="10" y="90" width="30" height="30" as="geometry" />
        </mxCell>
        <mxCell id="MCTIEd8ayWj7sPqM-dVJ-258" value="" style="shape=cube;whiteSpace=wrap;html=1;boundedLbl=1;backgroundOutline=1;darkOpacity=0.05;darkOpacity2=0.1;size=10;rotation=90;" parent="MCTIEd8ayWj7sPqM-dVJ-219" vertex="1">
          <mxGeometry x="10" y="70" width="30" height="30" as="geometry" />
        </mxCell>
        <mxCell id="MCTIEd8ayWj7sPqM-dVJ-259" value="" style="shape=cube;whiteSpace=wrap;html=1;boundedLbl=1;backgroundOutline=1;darkOpacity=0.05;darkOpacity2=0.1;size=10;rotation=90;" parent="MCTIEd8ayWj7sPqM-dVJ-219" vertex="1">
          <mxGeometry x="10" y="50" width="30" height="30" as="geometry" />
        </mxCell>
        <mxCell id="MCTIEd8ayWj7sPqM-dVJ-260" value="" style="shape=cube;whiteSpace=wrap;html=1;boundedLbl=1;backgroundOutline=1;darkOpacity=0.05;darkOpacity2=0.1;size=10;rotation=90;" parent="MCTIEd8ayWj7sPqM-dVJ-219" vertex="1">
          <mxGeometry x="10" y="30" width="30" height="30" as="geometry" />
        </mxCell>
        <mxCell id="MCTIEd8ayWj7sPqM-dVJ-261" value="" style="shape=cube;whiteSpace=wrap;html=1;boundedLbl=1;backgroundOutline=1;darkOpacity=0.05;darkOpacity2=0.1;size=10;rotation=90;" parent="MCTIEd8ayWj7sPqM-dVJ-219" vertex="1">
          <mxGeometry x="10" y="10" width="30" height="30" as="geometry" />
        </mxCell>
        <mxCell id="MCTIEd8ayWj7sPqM-dVJ-262" value="" style="shape=cube;whiteSpace=wrap;html=1;boundedLbl=1;backgroundOutline=1;darkOpacity=0.05;darkOpacity2=0.1;size=10;rotation=90;" parent="MCTIEd8ayWj7sPqM-dVJ-219" vertex="1">
          <mxGeometry x="30" y="110" width="30" height="30" as="geometry" />
        </mxCell>
        <mxCell id="MCTIEd8ayWj7sPqM-dVJ-263" value="" style="shape=cube;whiteSpace=wrap;html=1;boundedLbl=1;backgroundOutline=1;darkOpacity=0.05;darkOpacity2=0.1;size=10;rotation=90;" parent="MCTIEd8ayWj7sPqM-dVJ-219" vertex="1">
          <mxGeometry x="30" y="90" width="30" height="30" as="geometry" />
        </mxCell>
        <mxCell id="MCTIEd8ayWj7sPqM-dVJ-264" value="" style="shape=cube;whiteSpace=wrap;html=1;boundedLbl=1;backgroundOutline=1;darkOpacity=0.05;darkOpacity2=0.1;size=10;rotation=90;" parent="MCTIEd8ayWj7sPqM-dVJ-219" vertex="1">
          <mxGeometry x="30" y="70" width="30" height="30" as="geometry" />
        </mxCell>
        <mxCell id="MCTIEd8ayWj7sPqM-dVJ-265" value="" style="shape=cube;whiteSpace=wrap;html=1;boundedLbl=1;backgroundOutline=1;darkOpacity=0.05;darkOpacity2=0.1;size=10;rotation=90;" parent="MCTIEd8ayWj7sPqM-dVJ-219" vertex="1">
          <mxGeometry x="30" y="50" width="30" height="30" as="geometry" />
        </mxCell>
        <mxCell id="MCTIEd8ayWj7sPqM-dVJ-266" value="" style="shape=cube;whiteSpace=wrap;html=1;boundedLbl=1;backgroundOutline=1;darkOpacity=0.05;darkOpacity2=0.1;size=10;rotation=90;" parent="MCTIEd8ayWj7sPqM-dVJ-219" vertex="1">
          <mxGeometry x="30" y="30" width="30" height="30" as="geometry" />
        </mxCell>
        <mxCell id="MCTIEd8ayWj7sPqM-dVJ-267" value="" style="shape=cube;whiteSpace=wrap;html=1;boundedLbl=1;backgroundOutline=1;darkOpacity=0.05;darkOpacity2=0.1;size=10;rotation=90;" parent="MCTIEd8ayWj7sPqM-dVJ-219" vertex="1">
          <mxGeometry x="30" y="10" width="30" height="30" as="geometry" />
        </mxCell>
        <mxCell id="MCTIEd8ayWj7sPqM-dVJ-268" value="" style="shape=cube;whiteSpace=wrap;html=1;boundedLbl=1;backgroundOutline=1;darkOpacity=0.05;darkOpacity2=0.1;size=10;rotation=90;" parent="MCTIEd8ayWj7sPqM-dVJ-219" vertex="1">
          <mxGeometry x="50" y="110" width="30" height="30" as="geometry" />
        </mxCell>
        <mxCell id="MCTIEd8ayWj7sPqM-dVJ-269" value="" style="shape=cube;whiteSpace=wrap;html=1;boundedLbl=1;backgroundOutline=1;darkOpacity=0.05;darkOpacity2=0.1;size=10;rotation=90;" parent="MCTIEd8ayWj7sPqM-dVJ-219" vertex="1">
          <mxGeometry x="50" y="90" width="30" height="30" as="geometry" />
        </mxCell>
        <mxCell id="MCTIEd8ayWj7sPqM-dVJ-270" value="" style="shape=cube;whiteSpace=wrap;html=1;boundedLbl=1;backgroundOutline=1;darkOpacity=0.05;darkOpacity2=0.1;size=10;rotation=90;" parent="MCTIEd8ayWj7sPqM-dVJ-219" vertex="1">
          <mxGeometry x="50" y="70" width="30" height="30" as="geometry" />
        </mxCell>
        <mxCell id="MCTIEd8ayWj7sPqM-dVJ-271" value="" style="shape=cube;whiteSpace=wrap;html=1;boundedLbl=1;backgroundOutline=1;darkOpacity=0.05;darkOpacity2=0.1;size=10;rotation=90;" parent="MCTIEd8ayWj7sPqM-dVJ-219" vertex="1">
          <mxGeometry x="50" y="50" width="30" height="30" as="geometry" />
        </mxCell>
        <mxCell id="MCTIEd8ayWj7sPqM-dVJ-272" value="" style="shape=cube;whiteSpace=wrap;html=1;boundedLbl=1;backgroundOutline=1;darkOpacity=0.05;darkOpacity2=0.1;size=10;rotation=90;" parent="MCTIEd8ayWj7sPqM-dVJ-219" vertex="1">
          <mxGeometry x="50" y="30" width="30" height="30" as="geometry" />
        </mxCell>
        <mxCell id="MCTIEd8ayWj7sPqM-dVJ-273" value="" style="shape=cube;whiteSpace=wrap;html=1;boundedLbl=1;backgroundOutline=1;darkOpacity=0.05;darkOpacity2=0.1;size=10;rotation=90;" parent="MCTIEd8ayWj7sPqM-dVJ-219" vertex="1">
          <mxGeometry x="50" y="10" width="30" height="30" as="geometry" />
        </mxCell>
        <mxCell id="MCTIEd8ayWj7sPqM-dVJ-274" value="" style="shape=cube;whiteSpace=wrap;html=1;boundedLbl=1;backgroundOutline=1;darkOpacity=0.05;darkOpacity2=0.1;size=10;rotation=90;" parent="MCTIEd8ayWj7sPqM-dVJ-219" vertex="1">
          <mxGeometry x="70" y="110" width="30" height="30" as="geometry" />
        </mxCell>
        <mxCell id="MCTIEd8ayWj7sPqM-dVJ-275" value="" style="shape=cube;whiteSpace=wrap;html=1;boundedLbl=1;backgroundOutline=1;darkOpacity=0.05;darkOpacity2=0.1;size=10;rotation=90;" parent="MCTIEd8ayWj7sPqM-dVJ-219" vertex="1">
          <mxGeometry x="70" y="90" width="30" height="30" as="geometry" />
        </mxCell>
        <mxCell id="MCTIEd8ayWj7sPqM-dVJ-276" value="" style="shape=cube;whiteSpace=wrap;html=1;boundedLbl=1;backgroundOutline=1;darkOpacity=0.05;darkOpacity2=0.1;size=10;rotation=90;" parent="MCTIEd8ayWj7sPqM-dVJ-219" vertex="1">
          <mxGeometry x="70" y="70" width="30" height="30" as="geometry" />
        </mxCell>
        <mxCell id="MCTIEd8ayWj7sPqM-dVJ-277" value="" style="shape=cube;whiteSpace=wrap;html=1;boundedLbl=1;backgroundOutline=1;darkOpacity=0.05;darkOpacity2=0.1;size=10;rotation=90;" parent="MCTIEd8ayWj7sPqM-dVJ-219" vertex="1">
          <mxGeometry x="70" y="50" width="30" height="30" as="geometry" />
        </mxCell>
        <mxCell id="MCTIEd8ayWj7sPqM-dVJ-278" value="" style="shape=cube;whiteSpace=wrap;html=1;boundedLbl=1;backgroundOutline=1;darkOpacity=0.05;darkOpacity2=0.1;size=10;rotation=90;" parent="MCTIEd8ayWj7sPqM-dVJ-219" vertex="1">
          <mxGeometry x="70" y="30" width="30" height="30" as="geometry" />
        </mxCell>
        <mxCell id="MCTIEd8ayWj7sPqM-dVJ-279" value="" style="shape=cube;whiteSpace=wrap;html=1;boundedLbl=1;backgroundOutline=1;darkOpacity=0.05;darkOpacity2=0.1;size=10;rotation=90;" parent="MCTIEd8ayWj7sPqM-dVJ-219" vertex="1">
          <mxGeometry x="70" y="10" width="30" height="30" as="geometry" />
        </mxCell>
        <mxCell id="MCTIEd8ayWj7sPqM-dVJ-280" value="" style="shape=cube;whiteSpace=wrap;html=1;boundedLbl=1;backgroundOutline=1;darkOpacity=0.05;darkOpacity2=0.1;size=10;rotation=90;" parent="MCTIEd8ayWj7sPqM-dVJ-219" vertex="1">
          <mxGeometry x="90" y="110" width="30" height="30" as="geometry" />
        </mxCell>
        <mxCell id="MCTIEd8ayWj7sPqM-dVJ-281" value="" style="shape=cube;whiteSpace=wrap;html=1;boundedLbl=1;backgroundOutline=1;darkOpacity=0.05;darkOpacity2=0.1;size=10;rotation=90;" parent="MCTIEd8ayWj7sPqM-dVJ-219" vertex="1">
          <mxGeometry x="90" y="90" width="30" height="30" as="geometry" />
        </mxCell>
        <mxCell id="MCTIEd8ayWj7sPqM-dVJ-282" value="" style="shape=cube;whiteSpace=wrap;html=1;boundedLbl=1;backgroundOutline=1;darkOpacity=0.05;darkOpacity2=0.1;size=10;rotation=90;" parent="MCTIEd8ayWj7sPqM-dVJ-219" vertex="1">
          <mxGeometry x="90" y="70" width="30" height="30" as="geometry" />
        </mxCell>
        <mxCell id="MCTIEd8ayWj7sPqM-dVJ-283" value="" style="shape=cube;whiteSpace=wrap;html=1;boundedLbl=1;backgroundOutline=1;darkOpacity=0.05;darkOpacity2=0.1;size=10;rotation=90;" parent="MCTIEd8ayWj7sPqM-dVJ-219" vertex="1">
          <mxGeometry x="90" y="50" width="30" height="30" as="geometry" />
        </mxCell>
        <mxCell id="MCTIEd8ayWj7sPqM-dVJ-284" value="" style="shape=cube;whiteSpace=wrap;html=1;boundedLbl=1;backgroundOutline=1;darkOpacity=0.05;darkOpacity2=0.1;size=10;rotation=90;" parent="MCTIEd8ayWj7sPqM-dVJ-219" vertex="1">
          <mxGeometry x="90" y="30" width="30" height="30" as="geometry" />
        </mxCell>
        <mxCell id="MCTIEd8ayWj7sPqM-dVJ-285" value="" style="shape=cube;whiteSpace=wrap;html=1;boundedLbl=1;backgroundOutline=1;darkOpacity=0.05;darkOpacity2=0.1;size=10;rotation=90;" parent="MCTIEd8ayWj7sPqM-dVJ-219" vertex="1">
          <mxGeometry x="90" y="10" width="30" height="30" as="geometry" />
        </mxCell>
        <mxCell id="MCTIEd8ayWj7sPqM-dVJ-286" value="" style="shape=cube;whiteSpace=wrap;html=1;boundedLbl=1;backgroundOutline=1;darkOpacity=0.05;darkOpacity2=0.1;size=10;rotation=90;" parent="MCTIEd8ayWj7sPqM-dVJ-219" vertex="1">
          <mxGeometry x="110" y="110" width="30" height="30" as="geometry" />
        </mxCell>
        <mxCell id="MCTIEd8ayWj7sPqM-dVJ-287" value="" style="shape=cube;whiteSpace=wrap;html=1;boundedLbl=1;backgroundOutline=1;darkOpacity=0.05;darkOpacity2=0.1;size=10;rotation=90;" parent="MCTIEd8ayWj7sPqM-dVJ-219" vertex="1">
          <mxGeometry x="110" y="90" width="30" height="30" as="geometry" />
        </mxCell>
        <mxCell id="MCTIEd8ayWj7sPqM-dVJ-288" value="" style="shape=cube;whiteSpace=wrap;html=1;boundedLbl=1;backgroundOutline=1;darkOpacity=0.05;darkOpacity2=0.1;size=10;rotation=90;" parent="MCTIEd8ayWj7sPqM-dVJ-219" vertex="1">
          <mxGeometry x="110" y="70" width="30" height="30" as="geometry" />
        </mxCell>
        <mxCell id="MCTIEd8ayWj7sPqM-dVJ-289" value="" style="shape=cube;whiteSpace=wrap;html=1;boundedLbl=1;backgroundOutline=1;darkOpacity=0.05;darkOpacity2=0.1;size=10;rotation=90;" parent="MCTIEd8ayWj7sPqM-dVJ-219" vertex="1">
          <mxGeometry x="110" y="50" width="30" height="30" as="geometry" />
        </mxCell>
        <mxCell id="MCTIEd8ayWj7sPqM-dVJ-290" value="" style="shape=cube;whiteSpace=wrap;html=1;boundedLbl=1;backgroundOutline=1;darkOpacity=0.05;darkOpacity2=0.1;size=10;rotation=90;" parent="MCTIEd8ayWj7sPqM-dVJ-219" vertex="1">
          <mxGeometry x="110" y="30" width="30" height="30" as="geometry" />
        </mxCell>
        <mxCell id="MCTIEd8ayWj7sPqM-dVJ-291" value="" style="shape=cube;whiteSpace=wrap;html=1;boundedLbl=1;backgroundOutline=1;darkOpacity=0.05;darkOpacity2=0.1;size=10;rotation=90;" parent="MCTIEd8ayWj7sPqM-dVJ-219" vertex="1">
          <mxGeometry x="110" y="10" width="30" height="30" as="geometry" />
        </mxCell>
        <mxCell id="MCTIEd8ayWj7sPqM-dVJ-292" value="" style="shape=cube;whiteSpace=wrap;html=1;boundedLbl=1;backgroundOutline=1;darkOpacity=0.05;darkOpacity2=0.1;size=10;rotation=90;" parent="MCTIEd8ayWj7sPqM-dVJ-219" vertex="1">
          <mxGeometry y="120" width="30" height="30" as="geometry" />
        </mxCell>
        <mxCell id="MCTIEd8ayWj7sPqM-dVJ-293" value="" style="shape=cube;whiteSpace=wrap;html=1;boundedLbl=1;backgroundOutline=1;darkOpacity=0.05;darkOpacity2=0.1;size=10;rotation=90;" parent="MCTIEd8ayWj7sPqM-dVJ-219" vertex="1">
          <mxGeometry y="100" width="30" height="30" as="geometry" />
        </mxCell>
        <mxCell id="MCTIEd8ayWj7sPqM-dVJ-294" value="" style="shape=cube;whiteSpace=wrap;html=1;boundedLbl=1;backgroundOutline=1;darkOpacity=0.05;darkOpacity2=0.1;size=10;rotation=90;" parent="MCTIEd8ayWj7sPqM-dVJ-219" vertex="1">
          <mxGeometry y="80" width="30" height="30" as="geometry" />
        </mxCell>
        <mxCell id="MCTIEd8ayWj7sPqM-dVJ-295" value="" style="shape=cube;whiteSpace=wrap;html=1;boundedLbl=1;backgroundOutline=1;darkOpacity=0.05;darkOpacity2=0.1;size=10;rotation=90;" parent="MCTIEd8ayWj7sPqM-dVJ-219" vertex="1">
          <mxGeometry y="60" width="30" height="30" as="geometry" />
        </mxCell>
        <mxCell id="MCTIEd8ayWj7sPqM-dVJ-296" value="" style="shape=cube;whiteSpace=wrap;html=1;boundedLbl=1;backgroundOutline=1;darkOpacity=0.05;darkOpacity2=0.1;size=10;rotation=90;" parent="MCTIEd8ayWj7sPqM-dVJ-219" vertex="1">
          <mxGeometry y="40" width="30" height="30" as="geometry" />
        </mxCell>
        <mxCell id="MCTIEd8ayWj7sPqM-dVJ-297" value="" style="shape=cube;whiteSpace=wrap;html=1;boundedLbl=1;backgroundOutline=1;darkOpacity=0.05;darkOpacity2=0.1;size=10;rotation=90;" parent="MCTIEd8ayWj7sPqM-dVJ-219" vertex="1">
          <mxGeometry y="20" width="30" height="30" as="geometry" />
        </mxCell>
        <mxCell id="MCTIEd8ayWj7sPqM-dVJ-298" value="" style="shape=cube;whiteSpace=wrap;html=1;boundedLbl=1;backgroundOutline=1;darkOpacity=0.05;darkOpacity2=0.1;size=10;rotation=90;" parent="MCTIEd8ayWj7sPqM-dVJ-219" vertex="1">
          <mxGeometry x="20" y="120" width="30" height="30" as="geometry" />
        </mxCell>
        <mxCell id="MCTIEd8ayWj7sPqM-dVJ-299" value="" style="shape=cube;whiteSpace=wrap;html=1;boundedLbl=1;backgroundOutline=1;darkOpacity=0.05;darkOpacity2=0.1;size=10;rotation=90;" parent="MCTIEd8ayWj7sPqM-dVJ-219" vertex="1">
          <mxGeometry x="20" y="100" width="30" height="30" as="geometry" />
        </mxCell>
        <mxCell id="MCTIEd8ayWj7sPqM-dVJ-300" value="" style="shape=cube;whiteSpace=wrap;html=1;boundedLbl=1;backgroundOutline=1;darkOpacity=0.05;darkOpacity2=0.1;size=10;rotation=90;" parent="MCTIEd8ayWj7sPqM-dVJ-219" vertex="1">
          <mxGeometry x="20" y="80" width="30" height="30" as="geometry" />
        </mxCell>
        <mxCell id="MCTIEd8ayWj7sPqM-dVJ-301" value="" style="shape=cube;whiteSpace=wrap;html=1;boundedLbl=1;backgroundOutline=1;darkOpacity=0.05;darkOpacity2=0.1;size=10;rotation=90;" parent="MCTIEd8ayWj7sPqM-dVJ-219" vertex="1">
          <mxGeometry x="20" y="60" width="30" height="30" as="geometry" />
        </mxCell>
        <mxCell id="MCTIEd8ayWj7sPqM-dVJ-302" value="" style="shape=cube;whiteSpace=wrap;html=1;boundedLbl=1;backgroundOutline=1;darkOpacity=0.05;darkOpacity2=0.1;size=10;rotation=90;" parent="MCTIEd8ayWj7sPqM-dVJ-219" vertex="1">
          <mxGeometry x="20" y="40" width="30" height="30" as="geometry" />
        </mxCell>
        <mxCell id="MCTIEd8ayWj7sPqM-dVJ-303" value="" style="shape=cube;whiteSpace=wrap;html=1;boundedLbl=1;backgroundOutline=1;darkOpacity=0.05;darkOpacity2=0.1;size=10;rotation=90;" parent="MCTIEd8ayWj7sPqM-dVJ-219" vertex="1">
          <mxGeometry x="20" y="20" width="30" height="30" as="geometry" />
        </mxCell>
        <mxCell id="MCTIEd8ayWj7sPqM-dVJ-304" value="" style="shape=cube;whiteSpace=wrap;html=1;boundedLbl=1;backgroundOutline=1;darkOpacity=0.05;darkOpacity2=0.1;size=10;rotation=90;" parent="MCTIEd8ayWj7sPqM-dVJ-219" vertex="1">
          <mxGeometry x="40" y="120" width="30" height="30" as="geometry" />
        </mxCell>
        <mxCell id="MCTIEd8ayWj7sPqM-dVJ-305" value="" style="shape=cube;whiteSpace=wrap;html=1;boundedLbl=1;backgroundOutline=1;darkOpacity=0.05;darkOpacity2=0.1;size=10;rotation=90;" parent="MCTIEd8ayWj7sPqM-dVJ-219" vertex="1">
          <mxGeometry x="40" y="100" width="30" height="30" as="geometry" />
        </mxCell>
        <mxCell id="MCTIEd8ayWj7sPqM-dVJ-306" value="" style="shape=cube;whiteSpace=wrap;html=1;boundedLbl=1;backgroundOutline=1;darkOpacity=0.05;darkOpacity2=0.1;size=10;rotation=90;" parent="MCTIEd8ayWj7sPqM-dVJ-219" vertex="1">
          <mxGeometry x="40" y="80" width="30" height="30" as="geometry" />
        </mxCell>
        <mxCell id="MCTIEd8ayWj7sPqM-dVJ-307" value="" style="shape=cube;whiteSpace=wrap;html=1;boundedLbl=1;backgroundOutline=1;darkOpacity=0.05;darkOpacity2=0.1;size=10;rotation=90;" parent="MCTIEd8ayWj7sPqM-dVJ-219" vertex="1">
          <mxGeometry x="40" y="60" width="30" height="30" as="geometry" />
        </mxCell>
        <mxCell id="MCTIEd8ayWj7sPqM-dVJ-308" value="" style="shape=cube;whiteSpace=wrap;html=1;boundedLbl=1;backgroundOutline=1;darkOpacity=0.05;darkOpacity2=0.1;size=10;rotation=90;" parent="MCTIEd8ayWj7sPqM-dVJ-219" vertex="1">
          <mxGeometry x="40" y="40" width="30" height="30" as="geometry" />
        </mxCell>
        <mxCell id="MCTIEd8ayWj7sPqM-dVJ-309" value="" style="shape=cube;whiteSpace=wrap;html=1;boundedLbl=1;backgroundOutline=1;darkOpacity=0.05;darkOpacity2=0.1;size=10;rotation=90;" parent="MCTIEd8ayWj7sPqM-dVJ-219" vertex="1">
          <mxGeometry x="40" y="20" width="30" height="30" as="geometry" />
        </mxCell>
        <mxCell id="MCTIEd8ayWj7sPqM-dVJ-310" value="" style="shape=cube;whiteSpace=wrap;html=1;boundedLbl=1;backgroundOutline=1;darkOpacity=0.05;darkOpacity2=0.1;size=10;rotation=90;" parent="MCTIEd8ayWj7sPqM-dVJ-219" vertex="1">
          <mxGeometry x="60" y="120" width="30" height="30" as="geometry" />
        </mxCell>
        <mxCell id="MCTIEd8ayWj7sPqM-dVJ-311" value="" style="shape=cube;whiteSpace=wrap;html=1;boundedLbl=1;backgroundOutline=1;darkOpacity=0.05;darkOpacity2=0.1;size=10;rotation=90;" parent="MCTIEd8ayWj7sPqM-dVJ-219" vertex="1">
          <mxGeometry x="60" y="100" width="30" height="30" as="geometry" />
        </mxCell>
        <mxCell id="MCTIEd8ayWj7sPqM-dVJ-312" value="" style="shape=cube;whiteSpace=wrap;html=1;boundedLbl=1;backgroundOutline=1;darkOpacity=0.05;darkOpacity2=0.1;size=10;rotation=90;" parent="MCTIEd8ayWj7sPqM-dVJ-219" vertex="1">
          <mxGeometry x="60" y="80" width="30" height="30" as="geometry" />
        </mxCell>
        <mxCell id="MCTIEd8ayWj7sPqM-dVJ-313" value="" style="shape=cube;whiteSpace=wrap;html=1;boundedLbl=1;backgroundOutline=1;darkOpacity=0.05;darkOpacity2=0.1;size=10;rotation=90;" parent="MCTIEd8ayWj7sPqM-dVJ-219" vertex="1">
          <mxGeometry x="60" y="60" width="30" height="30" as="geometry" />
        </mxCell>
        <mxCell id="MCTIEd8ayWj7sPqM-dVJ-314" value="" style="shape=cube;whiteSpace=wrap;html=1;boundedLbl=1;backgroundOutline=1;darkOpacity=0.05;darkOpacity2=0.1;size=10;rotation=90;" parent="MCTIEd8ayWj7sPqM-dVJ-219" vertex="1">
          <mxGeometry x="60" y="40" width="30" height="30" as="geometry" />
        </mxCell>
        <mxCell id="MCTIEd8ayWj7sPqM-dVJ-315" value="" style="shape=cube;whiteSpace=wrap;html=1;boundedLbl=1;backgroundOutline=1;darkOpacity=0.05;darkOpacity2=0.1;size=10;rotation=90;" parent="MCTIEd8ayWj7sPqM-dVJ-219" vertex="1">
          <mxGeometry x="60" y="20" width="30" height="30" as="geometry" />
        </mxCell>
        <mxCell id="MCTIEd8ayWj7sPqM-dVJ-316" value="" style="shape=cube;whiteSpace=wrap;html=1;boundedLbl=1;backgroundOutline=1;darkOpacity=0.05;darkOpacity2=0.1;size=10;rotation=90;" parent="MCTIEd8ayWj7sPqM-dVJ-219" vertex="1">
          <mxGeometry x="80" y="120" width="30" height="30" as="geometry" />
        </mxCell>
        <mxCell id="MCTIEd8ayWj7sPqM-dVJ-317" value="" style="shape=cube;whiteSpace=wrap;html=1;boundedLbl=1;backgroundOutline=1;darkOpacity=0.05;darkOpacity2=0.1;size=10;rotation=90;" parent="MCTIEd8ayWj7sPqM-dVJ-219" vertex="1">
          <mxGeometry x="80" y="100" width="30" height="30" as="geometry" />
        </mxCell>
        <mxCell id="MCTIEd8ayWj7sPqM-dVJ-318" value="" style="shape=cube;whiteSpace=wrap;html=1;boundedLbl=1;backgroundOutline=1;darkOpacity=0.05;darkOpacity2=0.1;size=10;rotation=90;" parent="MCTIEd8ayWj7sPqM-dVJ-219" vertex="1">
          <mxGeometry x="80" y="80" width="30" height="30" as="geometry" />
        </mxCell>
        <mxCell id="MCTIEd8ayWj7sPqM-dVJ-319" value="" style="shape=cube;whiteSpace=wrap;html=1;boundedLbl=1;backgroundOutline=1;darkOpacity=0.05;darkOpacity2=0.1;size=10;rotation=90;" parent="MCTIEd8ayWj7sPqM-dVJ-219" vertex="1">
          <mxGeometry x="80" y="60" width="30" height="30" as="geometry" />
        </mxCell>
        <mxCell id="MCTIEd8ayWj7sPqM-dVJ-320" value="" style="shape=cube;whiteSpace=wrap;html=1;boundedLbl=1;backgroundOutline=1;darkOpacity=0.05;darkOpacity2=0.1;size=10;rotation=90;" parent="MCTIEd8ayWj7sPqM-dVJ-219" vertex="1">
          <mxGeometry x="80" y="40" width="30" height="30" as="geometry" />
        </mxCell>
        <mxCell id="MCTIEd8ayWj7sPqM-dVJ-321" value="" style="shape=cube;whiteSpace=wrap;html=1;boundedLbl=1;backgroundOutline=1;darkOpacity=0.05;darkOpacity2=0.1;size=10;rotation=90;" parent="MCTIEd8ayWj7sPqM-dVJ-219" vertex="1">
          <mxGeometry x="80" y="20" width="30" height="30" as="geometry" />
        </mxCell>
        <mxCell id="MCTIEd8ayWj7sPqM-dVJ-322" value="" style="shape=cube;whiteSpace=wrap;html=1;boundedLbl=1;backgroundOutline=1;darkOpacity=0.05;darkOpacity2=0.1;size=10;rotation=90;" parent="MCTIEd8ayWj7sPqM-dVJ-219" vertex="1">
          <mxGeometry x="100" y="120" width="30" height="30" as="geometry" />
        </mxCell>
        <mxCell id="MCTIEd8ayWj7sPqM-dVJ-323" value="" style="shape=cube;whiteSpace=wrap;html=1;boundedLbl=1;backgroundOutline=1;darkOpacity=0.05;darkOpacity2=0.1;size=10;rotation=90;" parent="MCTIEd8ayWj7sPqM-dVJ-219" vertex="1">
          <mxGeometry x="100" y="100" width="30" height="30" as="geometry" />
        </mxCell>
        <mxCell id="MCTIEd8ayWj7sPqM-dVJ-324" value="" style="shape=cube;whiteSpace=wrap;html=1;boundedLbl=1;backgroundOutline=1;darkOpacity=0.05;darkOpacity2=0.1;size=10;rotation=90;" parent="MCTIEd8ayWj7sPqM-dVJ-219" vertex="1">
          <mxGeometry x="100" y="80" width="30" height="30" as="geometry" />
        </mxCell>
        <mxCell id="MCTIEd8ayWj7sPqM-dVJ-325" value="" style="shape=cube;whiteSpace=wrap;html=1;boundedLbl=1;backgroundOutline=1;darkOpacity=0.05;darkOpacity2=0.1;size=10;rotation=90;" parent="MCTIEd8ayWj7sPqM-dVJ-219" vertex="1">
          <mxGeometry x="100" y="60" width="30" height="30" as="geometry" />
        </mxCell>
        <mxCell id="MCTIEd8ayWj7sPqM-dVJ-326" value="" style="shape=cube;whiteSpace=wrap;html=1;boundedLbl=1;backgroundOutline=1;darkOpacity=0.05;darkOpacity2=0.1;size=10;rotation=90;" parent="MCTIEd8ayWj7sPqM-dVJ-219" vertex="1">
          <mxGeometry x="100" y="40" width="30" height="30" as="geometry" />
        </mxCell>
        <mxCell id="MCTIEd8ayWj7sPqM-dVJ-327" value="" style="shape=cube;whiteSpace=wrap;html=1;boundedLbl=1;backgroundOutline=1;darkOpacity=0.05;darkOpacity2=0.1;size=10;rotation=90;" parent="MCTIEd8ayWj7sPqM-dVJ-219" vertex="1">
          <mxGeometry x="100" y="20" width="30" height="30" as="geometry" />
        </mxCell>
        <mxCell id="MCTIEd8ayWj7sPqM-dVJ-331" value="" style="endArrow=classic;html=1;rounded=0;fillColor=#e1d5e7;strokeColor=#9673a6;" parent="1" edge="1">
          <mxGeometry width="50" height="50" relative="1" as="geometry">
            <mxPoint x="140" y="280" as="sourcePoint" />
            <mxPoint x="200" y="280" as="targetPoint" />
          </mxGeometry>
        </mxCell>
        <mxCell id="MCTIEd8ayWj7sPqM-dVJ-332" value="axis 3" style="text;html=1;strokeColor=none;fillColor=none;align=center;verticalAlign=middle;whiteSpace=wrap;rounded=0;fontColor=#9673A6;" parent="1" vertex="1">
          <mxGeometry x="140" y="280" width="60" height="30" as="geometry" />
        </mxCell>
      </root>
    </mxGraphModel>
  </diagram>
</mxfile>
